<svg width="245" height="68" viewBox="0 0 245 68" fill="none" xmlns="http://www.w3.org/2000/svg">
<path d="M40.0761 6.38319L33.6929 0L9.33521 24.3577L15.7184 30.7409L40.0761 6.38319Z" fill="#3489C9"/>
<path d="M6.95269 26.725L0 33.6777L23.8998 57.5776L30.8525 50.6249L6.95269 26.725Z" fill="#134E85"/>
<path d="M33.1407 53.1664L26.188 60.1191L33.1407 67.0718L40.0934 60.1191L33.1407 53.1664Z" fill="#134E85"/>
<path d="M48.8881 15.1898L42.5049 8.80664L18.1472 33.1643L24.5304 39.5475L48.8881 15.1898Z" fill="#3489C9"/>
<path d="M57.6718 23.9769L51.2886 17.5938L26.9279 41.9544L33.3111 48.3376L57.6718 23.9769Z" fill="#3489C9"/>
<path d="M51.2962 17.5938C51.2962 17.5938 34.5404 36.6176 33.3217 48.3346L26.9385 41.9514L51.2962 17.5938Z" fill="url(#paint0_linear_612_30708)"/>
<path d="M67.0086 33.3065L60.2549 26.5527L35.8943 50.9134L42.648 57.6671L67.0086 33.3065Z" fill="#3489C9"/>
<path d="M60.238 26.582C60.238 26.582 43.4823 45.6059 42.2636 57.3229L35.8804 50.9397L60.238 26.582Z" fill="url(#paint1_linear_612_30708)"/>
<path d="M42.5076 8.81445C42.5076 8.81445 25.7519 27.8383 24.5331 39.5553L18.1499 33.1721L42.5076 8.81445Z" fill="url(#paint2_linear_612_30708)"/>
<path d="M33.6736 0C33.6736 0 16.9179 19.0238 15.6991 30.7409L9.31592 24.3577L33.6736 0Z" fill="url(#paint3_linear_612_30708)"/>
<path d="M46.242 12.5371C46.242 12.5371 46.0273 16.658 39.4771 24.5938L48.8879 15.183L46.242 12.5371Z" fill="url(#paint4_linear_612_30708)"/>
<path d="M37.4075 3.72266C37.4075 3.72266 37.1928 7.84356 30.6426 15.7794L40.0534 6.36855L37.4075 3.72266Z" fill="url(#paint5_linear_612_30708)"/>
<path d="M55.0267 21.332C55.0267 21.332 54.8119 25.4529 48.2617 33.3887L57.6725 23.9779L55.0267 21.332Z" fill="url(#paint6_linear_612_30708)"/>
<path d="M64.3664 30.666C64.3664 30.666 64.1518 34.7869 57.6016 42.7227L67.0124 33.3119L64.3664 30.666Z" fill="url(#paint7_linear_612_30708)"/>
<path d="M31.1015 50.8939C31.1015 50.8939 12.2044 34.167 0.56543 32.9503L6.90608 26.5781L31.1015 50.8939Z" fill="url(#paint8_linear_612_30708)"/>
<path d="M26.5773 54.9768C26.5773 54.9768 22.5185 54.7575 14.7021 48.0664L23.9713 57.6796L26.5773 54.9768Z" fill="url(#paint9_linear_612_30708)"/>
<path d="M33.3635 53.1562C33.3635 53.1562 30.2457 59.6537 33.3635 67.2933L26.0122 60.2248L33.3635 53.1562Z" fill="url(#paint10_linear_612_30708)"/>
<path d="M84.6 48.72V25.36C84.6 24.7467 84.6133 24.2933 84.64 24C84.6933 23.7067 84.8133 23.3733 85 23C85.3733 22.28 86.2667 21.92 87.68 21.92C89.0933 21.92 90.04 22.1067 90.52 22.48C91.0267 22.8267 91.32 23.3467 91.4 24.04C92.4133 22.6533 94 21.96 96.16 21.96C98.3467 21.96 100.413 22.9867 102.36 25.04C104.307 27.0933 105.28 29.48 105.28 32.2C105.28 34.92 104.307 37.3067 102.36 39.36C100.44 41.4133 98.3867 42.44 96.2 42.44C94.0133 42.44 92.4267 41.8267 91.44 40.6V48.68C91.44 49.2933 91.4133 49.7467 91.36 50.04C91.3333 50.3333 91.2133 50.6667 91 51.04C90.8133 51.44 90.48 51.72 90 51.88C89.52 52.04 88.8667 52.12 88.04 52.12C87.2133 52.12 86.5467 52.04 86.04 51.88C85.56 51.72 85.2133 51.4533 85 51.08C84.8133 50.7067 84.6933 50.3733 84.64 50.08C84.6133 49.7867 84.6 49.3333 84.6 48.72ZM92.52 29.88C91.9067 30.6 91.6 31.3867 91.6 32.24C91.6 33.0933 91.9067 33.88 92.52 34.6C93.16 35.2933 93.96 35.64 94.92 35.64C95.9067 35.64 96.7333 35.2933 97.4 34.6C98.0933 33.9067 98.44 33.12 98.44 32.24C98.44 31.36 98.12 30.5733 97.48 29.88C96.84 29.16 96 28.8 94.96 28.8C93.9467 28.8 93.1333 29.16 92.52 29.88ZM117.241 42.92C114.548 42.92 112.308 41.9067 110.521 39.88C108.761 37.8267 107.881 35.3333 107.881 32.4V25.4C107.881 24.76 107.895 24.2933 107.921 24C107.975 23.7067 108.095 23.36 108.281 22.96C108.655 22.24 109.695 21.88 111.401 21.88C113.268 21.88 114.361 22.3867 114.681 23.4C114.841 23.8267 114.921 24.5067 114.921 25.44V32.44C114.921 33.5333 115.228 34.3867 115.841 35C116.481 35.6133 117.321 35.92 118.361 35.92C119.428 35.92 120.281 35.6 120.921 34.96C121.588 34.32 121.921 33.48 121.921 32.44V25.36C121.921 24.7467 121.935 24.2933 121.961 24C122.015 23.68 122.148 23.32 122.361 22.92C122.708 22.2267 123.735 21.88 125.441 21.88C127.121 21.88 128.148 22.24 128.521 22.96C128.708 23.36 128.815 23.72 128.841 24.04C128.895 24.3333 128.921 24.7867 128.921 25.4V39.56C128.921 40.1467 128.895 40.6 128.841 40.92C128.815 41.2133 128.695 41.5467 128.481 41.92C128.081 42.6133 127.055 42.96 125.401 42.96C123.775 42.96 122.775 42.64 122.401 42C122.135 41.5467 122.001 41 122.001 40.36C121.895 40.5467 121.655 40.8133 121.281 41.16C120.908 41.5067 120.548 41.8 120.201 42.04C119.295 42.6267 118.308 42.92 117.241 42.92ZM143.859 21.92C146.526 21.92 148.739 22.9467 150.499 25C152.286 27.0267 153.179 29.5067 153.179 32.44V39.48C153.179 40.0933 153.152 40.56 153.099 40.88C153.072 41.1733 152.966 41.5067 152.779 41.88C152.406 42.6 151.366 42.96 149.659 42.96C147.766 42.96 146.672 42.4667 146.379 41.48C146.219 41.0267 146.139 40.3467 146.139 39.44V32.4C146.139 31.3067 145.819 30.4533 145.179 29.84C144.566 29.2267 143.726 28.92 142.659 28.92C141.619 28.92 140.766 29.24 140.099 29.88C139.459 30.52 139.139 31.36 139.139 32.4V39.48C139.139 40.0933 139.112 40.56 139.059 40.88C139.032 41.1733 138.912 41.5067 138.699 41.88C138.352 42.6 137.326 42.96 135.619 42.96C133.939 42.96 132.912 42.6 132.539 41.88C132.352 41.48 132.232 41.1333 132.179 40.84C132.152 40.52 132.139 40.0533 132.139 39.44V25.28C132.139 24.6933 132.152 24.2533 132.179 23.96C132.232 23.64 132.366 23.2933 132.579 22.92C132.952 22.2533 133.979 21.92 135.659 21.92C137.286 21.92 138.286 22.2267 138.659 22.84C138.926 23.2933 139.059 23.84 139.059 24.48C139.166 24.2933 139.406 24.0267 139.779 23.68C140.152 23.3333 140.512 23.0533 140.859 22.84C141.766 22.2267 142.766 21.92 143.859 21.92ZM162.997 32.48C162.997 33.6 163.37 34.48 164.117 35.12C164.864 35.7333 165.65 36.04 166.477 36.04C167.33 36.04 168.117 35.8 168.837 35.32C169.584 34.8133 170.184 34.56 170.637 34.56C171.437 34.56 172.41 35.2667 173.557 36.68C174.17 37.4533 174.477 38.1467 174.477 38.76C174.477 39.7733 173.744 40.72 172.277 41.6C170.757 42.6667 168.89 43.2 166.677 43.2C164.197 43.2 161.81 42.3067 159.517 40.52C158.424 39.6667 157.53 38.5333 156.837 37.12C156.144 35.68 155.797 34.1067 155.797 32.4C155.797 30.6667 156.144 29.1067 156.837 27.72C157.53 26.3067 158.424 25.1733 159.517 24.32C161.73 22.56 164.09 21.68 166.597 21.68C167.61 21.68 168.597 21.8267 169.557 22.12C170.517 22.3867 171.224 22.6533 171.677 22.92L172.317 23.32C172.797 23.64 173.17 23.8933 173.437 24.08C174.13 24.6133 174.477 25.2267 174.477 25.92C174.477 26.5867 174.197 27.3467 173.637 28.2C172.677 29.6667 171.757 30.4 170.877 30.4C170.37 30.4 169.65 30.1067 168.717 29.52C168.237 29.0667 167.544 28.84 166.637 28.84C165.757 28.84 164.93 29.16 164.157 29.8C163.384 30.44 162.997 31.3333 162.997 32.48ZM188.507 22C191.173 22 193.387 23.0133 195.147 25.04C196.933 27.0667 197.827 29.5467 197.827 32.48V39.52C197.827 40.1333 197.8 40.6 197.747 40.92C197.72 41.2133 197.6 41.56 197.387 41.96C197.04 42.6533 196.013 43 194.307 43C192.68 43 191.667 42.6533 191.267 41.96C191.053 41.56 190.92 41.2 190.867 40.88C190.84 40.56 190.827 40.08 190.827 39.44V32.44C190.827 31.3467 190.52 30.4933 189.907 29.88C189.293 29.2667 188.507 28.96 187.547 28.96C186.613 28.96 185.787 29.2533 185.067 29.84C184.347 30.4 183.933 31.04 183.827 31.76V39.52C183.827 40.1333 183.8 40.6 183.747 40.92C183.72 41.2133 183.6 41.56 183.387 41.96C183.04 42.6533 182.013 43 180.307 43C178.627 43 177.6 42.64 177.227 41.92C177.04 41.52 176.92 41.1733 176.867 40.88C176.84 40.5867 176.827 40.12 176.827 39.48V15.56C176.827 14.9467 176.84 14.4933 176.867 14.2C176.92 13.88 177.04 13.5333 177.227 13.16C177.6 12.44 178.64 12.08 180.347 12.08C182.027 12.08 183.04 12.44 183.387 13.16C183.6 13.56 183.72 13.92 183.747 14.24C183.8 14.5333 183.827 14.9867 183.827 15.6V24.44C185.16 22.8133 186.72 22 188.507 22Z" fill="#134E85"/>
<path d="M201.045 17.2C201.045 16.5867 201.059 16.1333 201.085 15.84C201.139 15.52 201.272 15.16 201.485 14.76C201.859 14.04 202.899 13.68 204.605 13.68C206.472 13.68 207.579 14.1733 207.925 15.16C208.059 15.6133 208.125 16.3067 208.125 17.24V39.48C208.125 40.12 208.099 40.5867 208.045 40.88C208.019 41.1733 207.899 41.52 207.685 41.92C207.312 42.64 206.272 43 204.565 43C202.699 43 201.605 42.4933 201.285 41.48C201.125 41.0533 201.045 40.3733 201.045 39.44V17.2ZM223.039 21.92C225.705 21.92 227.919 22.9467 229.679 25C231.465 27.0267 232.359 29.5067 232.359 32.44V39.48C232.359 40.0933 232.332 40.56 232.279 40.88C232.252 41.1733 232.145 41.5067 231.959 41.88C231.585 42.6 230.545 42.96 228.839 42.96C226.945 42.96 225.852 42.4667 225.559 41.48C225.399 41.0267 225.319 40.3467 225.319 39.44V32.4C225.319 31.3067 224.999 30.4533 224.359 29.84C223.745 29.2267 222.905 28.92 221.839 28.92C220.799 28.92 219.945 29.24 219.279 29.88C218.639 30.52 218.319 31.36 218.319 32.4V39.48C218.319 40.0933 218.292 40.56 218.239 40.88C218.212 41.1733 218.092 41.5067 217.879 41.88C217.532 42.6 216.505 42.96 214.799 42.96C213.119 42.96 212.092 42.6 211.719 41.88C211.532 41.48 211.412 41.1333 211.359 40.84C211.332 40.52 211.319 40.0533 211.319 39.44V25.28C211.319 24.6933 211.332 24.2533 211.359 23.96C211.412 23.64 211.545 23.2933 211.759 22.92C212.132 22.2533 213.159 21.92 214.839 21.92C216.465 21.92 217.465 22.2267 217.839 22.84C218.105 23.2933 218.239 23.84 218.239 24.48C218.345 24.2933 218.585 24.0267 218.959 23.68C219.332 23.3333 219.692 23.0533 220.039 22.84C220.945 22.2267 221.945 21.92 223.039 21.92Z" fill="#3489C9"/>
<path d="M240.5 43C242.985 43 245 40.9853 245 38.5C245 36.0147 242.985 34 240.5 34C238.015 34 236 36.0147 236 38.5C236 40.9853 238.015 43 240.5 43Z" fill="#3489C9"/>
<path d="M102.337 59.077C102.19 59.077 102.077 59.0367 101.996 58.956C101.923 58.868 101.886 58.747 101.886 58.593V54.985L102.084 55.612L99.3231 51.806C99.2571 51.7107 99.2241 51.6153 99.2241 51.52C99.2314 51.4173 99.2717 51.333 99.3451 51.267C99.4184 51.201 99.5137 51.168 99.6311 51.168C99.7337 51.168 99.8254 51.1937 99.9061 51.245C99.9867 51.289 100.06 51.3623 100.126 51.465L102.469 54.699H102.238L104.581 51.465C104.662 51.355 104.739 51.278 104.812 51.234C104.885 51.19 104.973 51.168 105.076 51.168C105.193 51.168 105.285 51.201 105.351 51.267C105.417 51.3257 105.45 51.4063 105.45 51.509C105.457 51.6043 105.424 51.707 105.351 51.817L102.601 55.612L102.788 54.985V58.593C102.788 58.9157 102.638 59.077 102.337 59.077ZM107.8 59.099C107.279 59.099 106.828 58.9853 106.447 58.758C106.065 58.5307 105.768 58.2117 105.556 57.801C105.35 57.383 105.248 56.8917 105.248 56.327C105.248 55.9017 105.306 55.5203 105.424 55.183C105.541 54.8383 105.713 54.545 105.941 54.303C106.168 54.061 106.436 53.8777 106.744 53.753C107.059 53.621 107.411 53.555 107.8 53.555C108.32 53.555 108.771 53.6687 109.153 53.896C109.534 54.1233 109.827 54.446 110.033 54.864C110.245 55.2747 110.352 55.7623 110.352 56.327C110.352 56.7523 110.293 57.1337 110.176 57.471C110.058 57.8083 109.886 58.1017 109.659 58.351C109.431 58.593 109.16 58.78 108.845 58.912C108.537 59.0367 108.188 59.099 107.8 59.099ZM107.8 58.384C108.13 58.384 108.419 58.3033 108.669 58.142C108.918 57.9807 109.109 57.746 109.241 57.438C109.38 57.13 109.45 56.7597 109.45 56.327C109.45 55.6597 109.299 55.15 108.999 54.798C108.705 54.446 108.306 54.27 107.8 54.27C107.462 54.27 107.169 54.3507 106.92 54.512C106.678 54.666 106.487 54.897 106.348 55.205C106.216 55.5057 106.15 55.8797 106.15 56.327C106.15 56.987 106.3 57.4967 106.601 57.856C106.901 58.208 107.301 58.384 107.8 58.384ZM113.582 59.099C113.149 59.099 112.79 59.022 112.504 58.868C112.225 58.7067 112.013 58.4683 111.866 58.153C111.727 57.8377 111.657 57.4453 111.657 56.976V54.028C111.657 53.874 111.694 53.7603 111.767 53.687C111.848 53.6137 111.958 53.577 112.097 53.577C112.244 53.577 112.354 53.6137 112.427 53.687C112.508 53.7603 112.548 53.874 112.548 54.028V56.965C112.548 57.4343 112.643 57.7863 112.834 58.021C113.032 58.2483 113.34 58.362 113.758 58.362C114.213 58.362 114.583 58.208 114.869 57.9C115.155 57.592 115.298 57.1887 115.298 56.69V54.028C115.298 53.874 115.335 53.7603 115.408 53.687C115.489 53.6137 115.602 53.577 115.749 53.577C115.888 53.577 115.995 53.6137 116.068 53.687C116.149 53.7603 116.189 53.874 116.189 54.028V58.615C116.189 58.923 116.046 59.077 115.76 59.077C115.621 59.077 115.511 59.0367 115.43 58.956C115.357 58.8753 115.32 58.7617 115.32 58.615V57.614L115.463 57.768C115.316 58.2007 115.074 58.5307 114.737 58.758C114.407 58.9853 114.022 59.099 113.582 59.099ZM118.307 59.077C118.16 59.077 118.047 59.0367 117.966 58.956C117.893 58.8753 117.856 58.7617 117.856 58.615V54.028C117.856 53.8813 117.893 53.7713 117.966 53.698C118.039 53.6173 118.146 53.577 118.285 53.577C118.424 53.577 118.531 53.6173 118.604 53.698C118.685 53.7713 118.725 53.8813 118.725 54.028V54.919H118.615C118.732 54.4863 118.956 54.1527 119.286 53.918C119.616 53.6833 120.023 53.5587 120.507 53.544C120.617 53.5367 120.705 53.5623 120.771 53.621C120.837 53.6723 120.874 53.764 120.881 53.896C120.888 54.0207 120.859 54.1197 120.793 54.193C120.727 54.2663 120.624 54.3103 120.485 54.325L120.309 54.347C119.81 54.391 119.425 54.5523 119.154 54.831C118.89 55.1023 118.758 55.4763 118.758 55.953V58.615C118.758 58.7617 118.718 58.8753 118.637 58.956C118.564 59.0367 118.454 59.077 118.307 59.077ZM125.206 59.077C125.06 59.077 124.946 59.0367 124.865 58.956C124.792 58.868 124.755 58.7507 124.755 58.604V51.641C124.755 51.487 124.792 51.3697 124.865 51.289C124.946 51.2083 125.06 51.168 125.206 51.168C125.353 51.168 125.463 51.2083 125.536 51.289C125.617 51.3697 125.657 51.487 125.657 51.641V58.604C125.657 58.7507 125.621 58.868 125.547 58.956C125.474 59.0367 125.36 59.077 125.206 59.077ZM127.9 59.077C127.753 59.077 127.643 59.0367 127.57 58.956C127.496 58.8753 127.46 58.7617 127.46 58.615V54.028C127.46 53.8813 127.496 53.7713 127.57 53.698C127.643 53.6173 127.749 53.577 127.889 53.577C128.028 53.577 128.134 53.6173 128.208 53.698C128.288 53.7713 128.329 53.8813 128.329 54.028V54.974L128.208 54.842C128.362 54.4167 128.611 54.0977 128.956 53.885C129.308 53.665 129.711 53.555 130.166 53.555C130.591 53.555 130.943 53.632 131.222 53.786C131.508 53.94 131.72 54.1747 131.86 54.49C131.999 54.798 132.069 55.1903 132.069 55.667V58.615C132.069 58.7617 132.028 58.8753 131.948 58.956C131.874 59.0367 131.768 59.077 131.629 59.077C131.482 59.077 131.368 59.0367 131.288 58.956C131.214 58.8753 131.178 58.7617 131.178 58.615V55.722C131.178 55.2233 131.079 54.8603 130.881 54.633C130.69 54.3983 130.382 54.281 129.957 54.281C129.465 54.281 129.073 54.435 128.78 54.743C128.494 55.0437 128.351 55.447 128.351 55.953V58.615C128.351 58.923 128.2 59.077 127.9 59.077ZM135.515 59.099C135.185 59.099 134.852 59.0587 134.514 58.978C134.184 58.8973 133.876 58.758 133.59 58.56C133.517 58.5087 133.466 58.45 133.436 58.384C133.407 58.3107 133.396 58.241 133.403 58.175C133.418 58.1017 133.447 58.0393 133.491 57.988C133.543 57.9367 133.601 57.9073 133.667 57.9C133.741 57.8853 133.821 57.9 133.909 57.944C134.195 58.12 134.47 58.2447 134.734 58.318C135.006 58.384 135.273 58.417 135.537 58.417C135.955 58.417 136.271 58.34 136.483 58.186C136.696 58.032 136.802 57.823 136.802 57.559C136.802 57.3537 136.733 57.1923 136.593 57.075C136.454 56.9503 136.234 56.855 135.933 56.789L134.932 56.569C134.47 56.4737 134.126 56.3087 133.898 56.074C133.678 55.8393 133.568 55.535 133.568 55.161C133.568 54.831 133.653 54.5487 133.821 54.314C133.997 54.072 134.243 53.885 134.558 53.753C134.874 53.621 135.24 53.555 135.658 53.555C135.981 53.555 136.285 53.599 136.571 53.687C136.865 53.7677 137.129 53.8997 137.363 54.083C137.437 54.1343 137.484 54.1967 137.506 54.27C137.536 54.336 137.539 54.4057 137.517 54.479C137.503 54.545 137.47 54.6037 137.418 54.655C137.367 54.699 137.305 54.7247 137.231 54.732C137.158 54.7393 137.081 54.7173 137 54.666C136.78 54.5193 136.557 54.413 136.329 54.347C136.102 54.2737 135.878 54.237 135.658 54.237C135.248 54.237 134.936 54.3177 134.723 54.479C134.511 54.6403 134.404 54.853 134.404 55.117C134.404 55.3223 134.47 55.491 134.602 55.623C134.734 55.755 134.94 55.8503 135.218 55.909L136.219 56.118C136.696 56.2207 137.052 56.3857 137.286 56.613C137.528 56.833 137.649 57.1337 137.649 57.515C137.649 57.999 137.455 58.384 137.066 58.67C136.678 58.956 136.161 59.099 135.515 59.099ZM140.899 59.099C140.467 59.099 140.107 59.022 139.821 58.868C139.543 58.7067 139.33 58.4683 139.183 58.153C139.044 57.8377 138.974 57.4453 138.974 56.976V54.028C138.974 53.874 139.011 53.7603 139.084 53.687C139.165 53.6137 139.275 53.577 139.414 53.577C139.561 53.577 139.671 53.6137 139.744 53.687C139.825 53.7603 139.865 53.874 139.865 54.028V56.965C139.865 57.4343 139.961 57.7863 140.151 58.021C140.349 58.2483 140.657 58.362 141.075 58.362C141.53 58.362 141.9 58.208 142.186 57.9C142.472 57.592 142.615 57.1887 142.615 56.69V54.028C142.615 53.874 142.652 53.7603 142.725 53.687C142.806 53.6137 142.92 53.577 143.066 53.577C143.206 53.577 143.312 53.6137 143.385 53.687C143.466 53.7603 143.506 53.874 143.506 54.028V58.615C143.506 58.923 143.363 59.077 143.077 59.077C142.938 59.077 142.828 59.0367 142.747 58.956C142.674 58.8753 142.637 58.7617 142.637 58.615V57.614L142.78 57.768C142.634 58.2007 142.392 58.5307 142.054 58.758C141.724 58.9853 141.339 59.099 140.899 59.099ZM145.624 59.077C145.478 59.077 145.364 59.0367 145.283 58.956C145.21 58.8753 145.173 58.7617 145.173 58.615V54.028C145.173 53.8813 145.21 53.7713 145.283 53.698C145.357 53.6173 145.463 53.577 145.602 53.577C145.742 53.577 145.848 53.6173 145.921 53.698C146.002 53.7713 146.042 53.8813 146.042 54.028V54.919H145.932C146.05 54.4863 146.273 54.1527 146.603 53.918C146.933 53.6833 147.34 53.5587 147.824 53.544C147.934 53.5367 148.022 53.5623 148.088 53.621C148.154 53.6723 148.191 53.764 148.198 53.896C148.206 54.0207 148.176 54.1197 148.11 54.193C148.044 54.2663 147.942 54.3103 147.802 54.325L147.626 54.347C147.128 54.391 146.743 54.5523 146.471 54.831C146.207 55.1023 146.075 55.4763 146.075 55.953V58.615C146.075 58.7617 146.035 58.8753 145.954 58.956C145.881 59.0367 145.771 59.077 145.624 59.077ZM150.745 59.099C150.378 59.099 150.048 59.0293 149.755 58.89C149.469 58.7433 149.242 58.5453 149.073 58.296C148.904 58.0467 148.82 57.768 148.82 57.46C148.82 57.064 148.919 56.7523 149.117 56.525C149.322 56.2977 149.656 56.1363 150.118 56.041C150.587 55.9457 151.225 55.898 152.032 55.898H152.527V56.481H152.043C151.449 56.481 150.98 56.5103 150.635 56.569C150.298 56.6203 150.059 56.712 149.92 56.844C149.788 56.976 149.722 57.163 149.722 57.405C149.722 57.7057 149.825 57.9513 150.03 58.142C150.243 58.3327 150.529 58.428 150.888 58.428C151.181 58.428 151.438 58.3583 151.658 58.219C151.885 58.0797 152.061 57.889 152.186 57.647C152.318 57.405 152.384 57.1263 152.384 56.811V55.557C152.384 55.1023 152.292 54.776 152.109 54.578C151.926 54.3727 151.625 54.27 151.207 54.27C150.95 54.27 150.694 54.303 150.437 54.369C150.18 54.435 149.909 54.5413 149.623 54.688C149.52 54.7393 149.432 54.7577 149.359 54.743C149.286 54.721 149.227 54.6807 149.183 54.622C149.139 54.5633 149.113 54.4973 149.106 54.424C149.099 54.3433 149.113 54.2663 149.15 54.193C149.194 54.1197 149.26 54.061 149.348 54.017C149.671 53.8557 149.99 53.7383 150.305 53.665C150.62 53.5917 150.921 53.555 151.207 53.555C151.669 53.555 152.05 53.632 152.351 53.786C152.652 53.9327 152.875 54.16 153.022 54.468C153.169 54.7687 153.242 55.1573 153.242 55.634V58.615C153.242 58.7617 153.205 58.8753 153.132 58.956C153.066 59.0367 152.967 59.077 152.835 59.077C152.696 59.077 152.589 59.0367 152.516 58.956C152.443 58.8753 152.406 58.7617 152.406 58.615V57.757H152.505C152.446 58.0357 152.333 58.274 152.164 58.472C152.003 58.67 151.801 58.824 151.559 58.934C151.317 59.044 151.046 59.099 150.745 59.099ZM155.335 59.077C155.188 59.077 155.078 59.0367 155.005 58.956C154.932 58.8753 154.895 58.7617 154.895 58.615V54.028C154.895 53.8813 154.932 53.7713 155.005 53.698C155.078 53.6173 155.185 53.577 155.324 53.577C155.463 53.577 155.57 53.6173 155.643 53.698C155.724 53.7713 155.764 53.8813 155.764 54.028V54.974L155.643 54.842C155.797 54.4167 156.046 54.0977 156.391 53.885C156.743 53.665 157.146 53.555 157.601 53.555C158.026 53.555 158.378 53.632 158.657 53.786C158.943 53.94 159.156 54.1747 159.295 54.49C159.434 54.798 159.504 55.1903 159.504 55.667V58.615C159.504 58.7617 159.464 58.8753 159.383 58.956C159.31 59.0367 159.203 59.077 159.064 59.077C158.917 59.077 158.804 59.0367 158.723 58.956C158.65 58.8753 158.613 58.7617 158.613 58.615V55.722C158.613 55.2233 158.514 54.8603 158.316 54.633C158.125 54.3983 157.817 54.281 157.392 54.281C156.901 54.281 156.508 54.435 156.215 54.743C155.929 55.0437 155.786 55.447 155.786 55.953V58.615C155.786 58.923 155.636 59.077 155.335 59.077ZM163.413 59.099C162.878 59.099 162.416 58.9817 162.027 58.747C161.638 58.5123 161.338 58.186 161.125 57.768C160.92 57.3427 160.817 56.8513 160.817 56.294C160.817 55.8687 160.876 55.4873 160.993 55.15C161.11 54.8127 161.283 54.5267 161.51 54.292C161.737 54.05 162.009 53.8667 162.324 53.742C162.647 53.6173 163.01 53.555 163.413 53.555C163.677 53.555 163.952 53.5953 164.238 53.676C164.524 53.7567 164.784 53.896 165.019 54.094C165.092 54.1453 165.14 54.2077 165.162 54.281C165.184 54.3543 165.184 54.4277 165.162 54.501C165.14 54.567 165.103 54.6257 165.052 54.677C165.001 54.721 164.935 54.7467 164.854 54.754C164.781 54.7613 164.704 54.7357 164.623 54.677C164.432 54.5303 164.238 54.4277 164.04 54.369C163.842 54.3103 163.651 54.281 163.468 54.281C163.182 54.281 162.933 54.3287 162.72 54.424C162.507 54.512 162.328 54.6403 162.181 54.809C162.034 54.9777 161.921 55.1867 161.84 55.436C161.767 55.6853 161.73 55.975 161.73 56.305C161.73 56.943 161.88 57.449 162.181 57.823C162.482 58.1897 162.911 58.373 163.468 58.373C163.651 58.373 163.838 58.3437 164.029 58.285C164.227 58.2263 164.425 58.1237 164.623 57.977C164.704 57.9183 164.781 57.8927 164.854 57.9C164.927 57.9073 164.99 57.9367 165.041 57.988C165.092 58.032 165.125 58.0907 165.14 58.164C165.162 58.2373 165.162 58.3107 165.14 58.384C165.118 58.45 165.07 58.5087 164.997 58.56C164.762 58.7507 164.506 58.89 164.227 58.978C163.948 59.0587 163.677 59.099 163.413 59.099ZM168.54 59.099C167.976 59.099 167.488 58.989 167.077 58.769C166.674 58.5417 166.359 58.2227 166.131 57.812C165.911 57.4013 165.801 56.91 165.801 56.338C165.801 55.7807 165.911 55.2967 166.131 54.886C166.351 54.468 166.652 54.1417 167.033 53.907C167.422 53.6723 167.869 53.555 168.375 53.555C168.735 53.555 169.057 53.6173 169.343 53.742C169.629 53.8593 169.871 54.0317 170.069 54.259C170.275 54.4863 170.429 54.7613 170.531 55.084C170.641 55.4067 170.696 55.7697 170.696 56.173C170.696 56.2903 170.663 56.3783 170.597 56.437C170.531 56.4883 170.436 56.514 170.311 56.514H166.483V55.931H170.102L169.926 56.074C169.926 55.678 169.868 55.3443 169.75 55.073C169.633 54.7943 169.461 54.5817 169.233 54.435C169.013 54.2883 168.735 54.215 168.397 54.215C168.023 54.215 167.704 54.303 167.44 54.479C167.184 54.6477 166.989 54.886 166.857 55.194C166.725 55.4947 166.659 55.8467 166.659 56.25V56.316C166.659 56.9907 166.821 57.504 167.143 57.856C167.473 58.208 167.939 58.384 168.54 58.384C168.79 58.384 169.035 58.351 169.277 58.285C169.527 58.219 169.769 58.109 170.003 57.955C170.106 57.889 170.198 57.8597 170.278 57.867C170.366 57.867 170.436 57.8927 170.487 57.944C170.539 57.988 170.572 58.0467 170.586 58.12C170.608 58.186 170.601 58.2593 170.564 58.34C170.535 58.4207 170.473 58.4903 170.377 58.549C170.135 58.725 169.849 58.8607 169.519 58.956C169.189 59.0513 168.863 59.099 168.54 59.099ZM178.298 59.099C177.535 59.099 176.883 58.9377 176.34 58.615C175.797 58.2923 175.379 57.834 175.086 57.24C174.8 56.646 174.657 55.9383 174.657 55.117C174.657 54.501 174.738 53.951 174.899 53.467C175.068 52.9757 175.306 52.5613 175.614 52.224C175.929 51.8793 176.314 51.6153 176.769 51.432C177.224 51.2413 177.733 51.146 178.298 51.146C178.753 51.146 179.185 51.212 179.596 51.344C180.007 51.4687 180.362 51.6557 180.663 51.905C180.758 51.9783 180.821 52.0627 180.85 52.158C180.887 52.246 180.89 52.334 180.861 52.422C180.839 52.5027 180.795 52.5723 180.729 52.631C180.67 52.6823 180.597 52.708 180.509 52.708C180.421 52.708 180.322 52.6713 180.212 52.598C179.948 52.3853 179.658 52.2277 179.343 52.125C179.028 52.0223 178.687 51.971 178.32 51.971C177.741 51.971 177.249 52.0957 176.846 52.345C176.443 52.587 176.138 52.9427 175.933 53.412C175.728 53.8813 175.625 54.4497 175.625 55.117C175.625 55.7843 175.728 56.3563 175.933 56.833C176.138 57.3023 176.443 57.6617 176.846 57.911C177.249 58.153 177.741 58.274 178.32 58.274C178.679 58.274 179.02 58.2227 179.343 58.12C179.666 58.01 179.963 57.8487 180.234 57.636C180.344 57.5627 180.443 57.5297 180.531 57.537C180.619 57.537 180.692 57.5627 180.751 57.614C180.81 57.6653 180.85 57.7313 180.872 57.812C180.901 57.8927 180.901 57.977 180.872 58.065C180.85 58.153 180.795 58.23 180.707 58.296C180.399 58.56 180.036 58.7617 179.618 58.901C179.207 59.033 178.767 59.099 178.298 59.099ZM183.851 59.099C183.323 59.099 182.92 58.9377 182.641 58.615C182.363 58.2923 182.223 57.8303 182.223 57.229V51.619C182.223 51.4723 182.26 51.3623 182.333 51.289C182.407 51.2083 182.517 51.168 182.663 51.168C182.803 51.168 182.913 51.2083 182.993 51.289C183.074 51.3623 183.114 51.4723 183.114 51.619V57.163C183.114 57.559 183.191 57.856 183.345 58.054C183.507 58.2447 183.741 58.34 184.049 58.34C184.115 58.34 184.174 58.3363 184.225 58.329C184.277 58.3217 184.328 58.318 184.379 58.318C184.46 58.3107 184.515 58.329 184.544 58.373C184.581 58.417 184.599 58.505 184.599 58.637C184.599 58.769 184.57 58.868 184.511 58.934C184.453 59 184.357 59.044 184.225 59.066C184.167 59.0733 184.104 59.0807 184.038 59.088C183.972 59.0953 183.91 59.099 183.851 59.099ZM187.161 59.099C186.794 59.099 186.464 59.0293 186.171 58.89C185.885 58.7433 185.658 58.5453 185.489 58.296C185.32 58.0467 185.236 57.768 185.236 57.46C185.236 57.064 185.335 56.7523 185.533 56.525C185.738 56.2977 186.072 56.1363 186.534 56.041C187.003 55.9457 187.641 55.898 188.448 55.898H188.943V56.481H188.459C187.865 56.481 187.396 56.5103 187.051 56.569C186.714 56.6203 186.475 56.712 186.336 56.844C186.204 56.976 186.138 57.163 186.138 57.405C186.138 57.7057 186.241 57.9513 186.446 58.142C186.659 58.3327 186.945 58.428 187.304 58.428C187.597 58.428 187.854 58.3583 188.074 58.219C188.301 58.0797 188.477 57.889 188.602 57.647C188.734 57.405 188.8 57.1263 188.8 56.811V55.557C188.8 55.1023 188.708 54.776 188.525 54.578C188.342 54.3727 188.041 54.27 187.623 54.27C187.366 54.27 187.11 54.303 186.853 54.369C186.596 54.435 186.325 54.5413 186.039 54.688C185.936 54.7393 185.848 54.7577 185.775 54.743C185.702 54.721 185.643 54.6807 185.599 54.622C185.555 54.5633 185.529 54.4973 185.522 54.424C185.515 54.3433 185.529 54.2663 185.566 54.193C185.61 54.1197 185.676 54.061 185.764 54.017C186.087 53.8557 186.406 53.7383 186.721 53.665C187.036 53.5917 187.337 53.555 187.623 53.555C188.085 53.555 188.466 53.632 188.767 53.786C189.068 53.9327 189.291 54.16 189.438 54.468C189.585 54.7687 189.658 55.1573 189.658 55.634V58.615C189.658 58.7617 189.621 58.8753 189.548 58.956C189.482 59.0367 189.383 59.077 189.251 59.077C189.112 59.077 189.005 59.0367 188.932 58.956C188.859 58.8753 188.822 58.7617 188.822 58.615V57.757H188.921C188.862 58.0357 188.749 58.274 188.58 58.472C188.419 58.67 188.217 58.824 187.975 58.934C187.733 59.044 187.462 59.099 187.161 59.099ZM191.751 59.055C191.604 59.055 191.494 59.0147 191.421 58.934C191.348 58.846 191.311 58.725 191.311 58.571V54.072C191.311 53.918 191.348 53.8007 191.421 53.72C191.494 53.6393 191.604 53.599 191.751 53.599C191.89 53.599 192 53.6393 192.081 53.72C192.162 53.8007 192.202 53.918 192.202 54.072V58.571C192.202 58.725 192.162 58.846 192.081 58.934C192.008 59.0147 191.898 59.055 191.751 59.055ZM191.751 52.367C191.568 52.367 191.425 52.3193 191.322 52.224C191.219 52.1213 191.168 51.9857 191.168 51.817C191.168 51.641 191.219 51.509 191.322 51.421C191.425 51.3257 191.568 51.278 191.751 51.278C191.942 51.278 192.085 51.3257 192.18 51.421C192.283 51.509 192.334 51.641 192.334 51.817C192.334 51.9857 192.283 52.1213 192.18 52.224C192.085 52.3193 191.942 52.367 191.751 52.367ZM194.33 59.077C194.183 59.077 194.073 59.0367 194 58.956C193.926 58.8753 193.89 58.7617 193.89 58.615V54.028C193.89 53.8813 193.926 53.7713 194 53.698C194.073 53.6173 194.179 53.577 194.319 53.577C194.458 53.577 194.564 53.6173 194.638 53.698C194.718 53.7713 194.759 53.8813 194.759 54.028V54.996L194.638 54.842C194.777 54.4313 195.001 54.116 195.309 53.896C195.624 53.6687 195.998 53.555 196.431 53.555C196.885 53.555 197.252 53.665 197.531 53.885C197.817 54.0977 198.007 54.4313 198.103 54.886H197.938C198.07 54.4753 198.304 54.1527 198.642 53.918C198.986 53.676 199.386 53.555 199.841 53.555C200.244 53.555 200.574 53.632 200.831 53.786C201.095 53.94 201.293 54.1747 201.425 54.49C201.557 54.798 201.623 55.1903 201.623 55.667V58.615C201.623 58.7617 201.582 58.8753 201.502 58.956C201.428 59.0367 201.318 59.077 201.172 59.077C201.032 59.077 200.922 59.0367 200.842 58.956C200.768 58.8753 200.732 58.7617 200.732 58.615V55.711C200.732 55.2197 200.647 54.8603 200.479 54.633C200.31 54.3983 200.024 54.281 199.621 54.281C199.181 54.281 198.832 54.435 198.576 54.743C198.326 55.0437 198.202 55.4543 198.202 55.975V58.615C198.202 58.7617 198.161 58.8753 198.081 58.956C198.007 59.0367 197.897 59.077 197.751 59.077C197.611 59.077 197.501 59.0367 197.421 58.956C197.347 58.8753 197.311 58.7617 197.311 58.615V55.711C197.311 55.2197 197.223 54.8603 197.047 54.633C196.878 54.3983 196.596 54.281 196.2 54.281C195.76 54.281 195.411 54.435 195.155 54.743C194.905 55.0437 194.781 55.4543 194.781 55.975V58.615C194.781 58.923 194.63 59.077 194.33 59.077ZM206.697 59.077C206.55 59.077 206.436 59.0367 206.356 58.956C206.282 58.868 206.246 58.7507 206.246 58.604V51.707C206.246 51.553 206.286 51.4393 206.367 51.366C206.447 51.2853 206.561 51.245 206.708 51.245H209.315C210.143 51.245 210.781 51.4503 211.229 51.861C211.676 52.2643 211.9 52.8363 211.9 53.577C211.9 54.3103 211.676 54.8823 211.229 55.293C210.781 55.7037 210.143 55.909 209.315 55.909H207.148V58.604C207.148 58.7507 207.111 58.868 207.038 58.956C206.964 59.0367 206.851 59.077 206.697 59.077ZM207.148 55.15H209.205C209.799 55.15 210.246 55.018 210.547 54.754C210.855 54.4827 211.009 54.0903 211.009 53.577C211.009 53.0563 210.855 52.664 210.547 52.4C210.246 52.1287 209.799 51.993 209.205 51.993H207.148V55.15ZM214.5 59.099C214.133 59.099 213.803 59.0293 213.51 58.89C213.224 58.7433 212.997 58.5453 212.828 58.296C212.659 58.0467 212.575 57.768 212.575 57.46C212.575 57.064 212.674 56.7523 212.872 56.525C213.077 56.2977 213.411 56.1363 213.873 56.041C214.342 55.9457 214.98 55.898 215.787 55.898H216.282V56.481H215.798C215.204 56.481 214.735 56.5103 214.39 56.569C214.053 56.6203 213.814 56.712 213.675 56.844C213.543 56.976 213.477 57.163 213.477 57.405C213.477 57.7057 213.58 57.9513 213.785 58.142C213.998 58.3327 214.284 58.428 214.643 58.428C214.936 58.428 215.193 58.3583 215.413 58.219C215.64 58.0797 215.816 57.889 215.941 57.647C216.073 57.405 216.139 57.1263 216.139 56.811V55.557C216.139 55.1023 216.047 54.776 215.864 54.578C215.681 54.3727 215.38 54.27 214.962 54.27C214.705 54.27 214.449 54.303 214.192 54.369C213.935 54.435 213.664 54.5413 213.378 54.688C213.275 54.7393 213.187 54.7577 213.114 54.743C213.041 54.721 212.982 54.6807 212.938 54.622C212.894 54.5633 212.868 54.4973 212.861 54.424C212.854 54.3433 212.868 54.2663 212.905 54.193C212.949 54.1197 213.015 54.061 213.103 54.017C213.426 53.8557 213.745 53.7383 214.06 53.665C214.375 53.5917 214.676 53.555 214.962 53.555C215.424 53.555 215.805 53.632 216.106 53.786C216.407 53.9327 216.63 54.16 216.777 54.468C216.924 54.7687 216.997 55.1573 216.997 55.634V58.615C216.997 58.7617 216.96 58.8753 216.887 58.956C216.821 59.0367 216.722 59.077 216.59 59.077C216.451 59.077 216.344 59.0367 216.271 58.956C216.198 58.8753 216.161 58.7617 216.161 58.615V57.757H216.26C216.201 58.0357 216.088 58.274 215.919 58.472C215.758 58.67 215.556 58.824 215.314 58.934C215.072 59.044 214.801 59.099 214.5 59.099ZM219.101 59.077C218.954 59.077 218.841 59.0367 218.76 58.956C218.687 58.8753 218.65 58.7617 218.65 58.615V54.028C218.65 53.8813 218.687 53.7713 218.76 53.698C218.833 53.6173 218.94 53.577 219.079 53.577C219.218 53.577 219.325 53.6173 219.398 53.698C219.479 53.7713 219.519 53.8813 219.519 54.028V54.919H219.409C219.526 54.4863 219.75 54.1527 220.08 53.918C220.41 53.6833 220.817 53.5587 221.301 53.544C221.411 53.5367 221.499 53.5623 221.565 53.621C221.631 53.6723 221.668 53.764 221.675 53.896C221.682 54.0207 221.653 54.1197 221.587 54.193C221.521 54.2663 221.418 54.3103 221.279 54.325L221.103 54.347C220.604 54.391 220.219 54.5523 219.948 54.831C219.684 55.1023 219.552 55.4763 219.552 55.953V58.615C219.552 58.7617 219.512 58.8753 219.431 58.956C219.358 59.0367 219.248 59.077 219.101 59.077ZM225.027 59.099C224.609 59.099 224.257 59.0257 223.971 58.879C223.693 58.725 223.484 58.505 223.344 58.219C223.205 57.9257 223.135 57.57 223.135 57.152V54.347H222.398C222.274 54.347 222.178 54.3177 222.112 54.259C222.046 54.193 222.013 54.105 222.013 53.995C222.013 53.885 222.046 53.8007 222.112 53.742C222.178 53.6833 222.274 53.654 222.398 53.654H223.135V52.389C223.135 52.2423 223.176 52.1323 223.256 52.059C223.337 51.9783 223.447 51.938 223.586 51.938C223.726 51.938 223.832 51.9783 223.905 52.059C223.986 52.1323 224.026 52.2423 224.026 52.389V53.654H225.412C225.537 53.654 225.632 53.6833 225.698 53.742C225.764 53.8007 225.797 53.885 225.797 53.995C225.797 54.105 225.764 54.193 225.698 54.259C225.632 54.3177 225.537 54.347 225.412 54.347H224.026V57.064C224.026 57.482 224.114 57.801 224.29 58.021C224.466 58.2337 224.752 58.34 225.148 58.34C225.288 58.34 225.405 58.3253 225.5 58.296C225.603 58.2667 225.687 58.252 225.753 58.252C225.819 58.2447 225.874 58.2667 225.918 58.318C225.962 58.3693 225.984 58.4573 225.984 58.582C225.984 58.67 225.966 58.7507 225.929 58.824C225.9 58.8973 225.845 58.9487 225.764 58.978C225.676 59.0073 225.559 59.033 225.412 59.055C225.273 59.0843 225.145 59.099 225.027 59.099ZM227.168 59.077C227.021 59.077 226.911 59.0367 226.838 58.956C226.765 58.8753 226.728 58.7617 226.728 58.615V54.028C226.728 53.8813 226.765 53.7713 226.838 53.698C226.911 53.6173 227.018 53.577 227.157 53.577C227.296 53.577 227.403 53.6173 227.476 53.698C227.557 53.7713 227.597 53.8813 227.597 54.028V54.974L227.476 54.842C227.63 54.4167 227.879 54.0977 228.224 53.885C228.576 53.665 228.979 53.555 229.434 53.555C229.859 53.555 230.211 53.632 230.49 53.786C230.776 53.94 230.989 54.1747 231.128 54.49C231.267 54.798 231.337 55.1903 231.337 55.667V58.615C231.337 58.7617 231.297 58.8753 231.216 58.956C231.143 59.0367 231.036 59.077 230.897 59.077C230.75 59.077 230.637 59.0367 230.556 58.956C230.483 58.8753 230.446 58.7617 230.446 58.615V55.722C230.446 55.2233 230.347 54.8603 230.149 54.633C229.958 54.3983 229.65 54.281 229.225 54.281C228.734 54.281 228.341 54.435 228.048 54.743C227.762 55.0437 227.619 55.447 227.619 55.953V58.615C227.619 58.923 227.469 59.077 227.168 59.077ZM235.389 59.099C234.824 59.099 234.337 58.989 233.926 58.769C233.523 58.5417 233.207 58.2227 232.98 57.812C232.76 57.4013 232.65 56.91 232.65 56.338C232.65 55.7807 232.76 55.2967 232.98 54.886C233.2 54.468 233.501 54.1417 233.882 53.907C234.271 53.6723 234.718 53.555 235.224 53.555C235.583 53.555 235.906 53.6173 236.192 53.742C236.478 53.8593 236.72 54.0317 236.918 54.259C237.123 54.4863 237.277 54.7613 237.38 55.084C237.49 55.4067 237.545 55.7697 237.545 56.173C237.545 56.2903 237.512 56.3783 237.446 56.437C237.38 56.4883 237.285 56.514 237.16 56.514H233.332V55.931H236.951L236.775 56.074C236.775 55.678 236.716 55.3443 236.599 55.073C236.482 54.7943 236.309 54.5817 236.082 54.435C235.862 54.2883 235.583 54.215 235.246 54.215C234.872 54.215 234.553 54.303 234.289 54.479C234.032 54.6477 233.838 54.886 233.706 55.194C233.574 55.4947 233.508 55.8467 233.508 56.25V56.316C233.508 56.9907 233.669 57.504 233.992 57.856C234.322 58.208 234.788 58.384 235.389 58.384C235.638 58.384 235.884 58.351 236.126 58.285C236.375 58.219 236.617 58.109 236.852 57.955C236.955 57.889 237.046 57.8597 237.127 57.867C237.215 57.867 237.285 57.8927 237.336 57.944C237.387 57.988 237.42 58.0467 237.435 58.12C237.457 58.186 237.45 58.2593 237.413 58.34C237.384 58.4207 237.321 58.4903 237.226 58.549C236.984 58.725 236.698 58.8607 236.368 58.956C236.038 59.0513 235.712 59.099 235.389 59.099ZM239.286 59.077C239.139 59.077 239.025 59.0367 238.945 58.956C238.871 58.8753 238.835 58.7617 238.835 58.615V54.028C238.835 53.8813 238.871 53.7713 238.945 53.698C239.018 53.6173 239.124 53.577 239.264 53.577C239.403 53.577 239.509 53.6173 239.583 53.698C239.663 53.7713 239.704 53.8813 239.704 54.028V54.919H239.594C239.711 54.4863 239.935 54.1527 240.265 53.918C240.595 53.6833 241.002 53.5587 241.486 53.544C241.596 53.5367 241.684 53.5623 241.75 53.621C241.816 53.6723 241.852 53.764 241.86 53.896C241.867 54.0207 241.838 54.1197 241.772 54.193C241.706 54.2663 241.603 54.3103 241.464 54.325L241.288 54.347C240.789 54.391 240.404 54.5523 240.133 54.831C239.869 55.1023 239.737 55.4763 239.737 55.953V58.615C239.737 58.7617 239.696 58.8753 239.616 58.956C239.542 59.0367 239.432 59.077 239.286 59.077Z" fill="#2B2C2D"/>
<defs>
<linearGradient id="paint0_linear_612_30708" x1="39.1173" y1="17.5938" x2="39.1173" y2="48.3346" gradientUnits="userSpaceOnUse">
<stop stop-color="#134E85"/>
<stop offset="1" stop-color="#3489C9"/>
</linearGradient>
<linearGradient id="paint1_linear_612_30708" x1="48.0592" y1="26.582" x2="48.0592" y2="57.3229" gradientUnits="userSpaceOnUse">
<stop stop-color="#134E85"/>
<stop offset="1" stop-color="#3489C9"/>
</linearGradient>
<linearGradient id="paint2_linear_612_30708" x1="30.3288" y1="8.81445" x2="30.3288" y2="39.5553" gradientUnits="userSpaceOnUse">
<stop stop-color="#134E85"/>
<stop offset="1" stop-color="#3489C9"/>
</linearGradient>
<linearGradient id="paint3_linear_612_30708" x1="21.4948" y1="0" x2="21.4948" y2="30.7409" gradientUnits="userSpaceOnUse">
<stop stop-color="#134E85"/>
<stop offset="1" stop-color="#3489C9"/>
</linearGradient>
<linearGradient id="paint4_linear_612_30708" x1="44.1825" y1="24.5938" x2="44.1825" y2="12.5371" gradientUnits="userSpaceOnUse">
<stop stop-color="white" stop-opacity="0.07"/>
<stop offset="1" stop-color="#3489C9"/>
</linearGradient>
<linearGradient id="paint5_linear_612_30708" x1="35.348" y1="15.7794" x2="35.348" y2="3.72266" gradientUnits="userSpaceOnUse">
<stop stop-color="white" stop-opacity="0.07"/>
<stop offset="1" stop-color="#3489C9"/>
</linearGradient>
<linearGradient id="paint6_linear_612_30708" x1="52.9671" y1="33.3887" x2="52.9671" y2="21.332" gradientUnits="userSpaceOnUse">
<stop stop-color="white" stop-opacity="0.07"/>
<stop offset="1" stop-color="#3489C9"/>
</linearGradient>
<linearGradient id="paint7_linear_612_30708" x1="62.307" y1="42.7227" x2="62.307" y2="30.666" gradientUnits="userSpaceOnUse">
<stop stop-color="white" stop-opacity="0.07"/>
<stop offset="1" stop-color="#3489C9"/>
</linearGradient>
<linearGradient id="paint8_linear_612_30708" x1="15.8335" y1="26.5781" x2="15.8335" y2="50.8939" gradientUnits="userSpaceOnUse">
<stop stop-color="#134E85"/>
<stop offset="1" stop-color="#072F51"/>
</linearGradient>
<linearGradient id="paint9_linear_612_30708" x1="14.7022" y1="52.873" x2="26.5773" y2="52.873" gradientUnits="userSpaceOnUse">
<stop stop-color="white" stop-opacity="0.07"/>
<stop offset="1" stop-color="#134E85" stop-opacity="0.5"/>
</linearGradient>
<linearGradient id="paint10_linear_612_30708" x1="29.6878" y1="67.2933" x2="29.6878" y2="53.1562" gradientUnits="userSpaceOnUse">
<stop stop-color="white" stop-opacity="0.07"/>
<stop offset="1" stop-color="#134E85" stop-opacity="0.5"/>
</linearGradient>
</defs>
</svg>
