<svg width="16" height="21" viewBox="0 0 16 21" fill="none" xmlns="http://www.w3.org/2000/svg">
<path d="M8 0.5C10.2091 0.5 12 2.29086 12 4.5V6.5H14.5C15.3284 6.5 16 7.17157 16 8V19C16 19.8284 15.3284 20.5 14.5 20.5H1.5C0.671573 20.5 0 19.8284 0 19V8C0 7.17157 0.671573 6.5 1.5 6.5H4V4.5C4 2.29086 5.79086 0.5 8 0.5ZM8.00012 12C7.1717 12 6.50012 12.6716 6.50012 13.5C6.50012 14.3284 7.1717 15 8.00012 15C8.82855 15 9.50012 14.3284 9.50012 13.5C9.50012 12.6716 8.82855 12 8.00012 12ZM8 2.5C6.89543 2.5 6 3.39543 6 4.5V6.5H10V4.5C10 3.39543 9.10457 2.5 8 2.5Z" fill="#3489C9"/>
</svg>
