<svg width="323" height="88" viewBox="0 0 323 88" fill="none" xmlns="http://www.w3.org/2000/svg">
<g clip-path="url(#clip0_815_21483)">
<path d="M28.5248 3.10223C35.7365 -1.03408 44.5765 -1.03408 51.7882 3.10223L68.4245 12.6441C75.7741 16.8595 80.3128 24.7275 80.3128 33.2515V48.5344C80.3128 56.5934 76.2521 64.1004 69.5317 68.4653L52.8955 79.2702C45.1383 84.3082 35.1749 84.3082 27.4177 79.2702L10.7815 68.4653C4.06095 64.1004 0 56.5934 0 48.5344V33.2515C0 24.7275 4.53917 16.8595 11.8887 12.6441L28.5248 3.10223Z" fill="url(#paint0_linear_815_21483)"/>
<path d="M111.89 21.7904C109.019 21.7904 106.254 22.38 104.659 23.5591L102.533 26.7212V22.5407H92.9624V61.6657H102.533V47.4628L104.394 50.5177C105.829 51.3753 108.594 51.9112 110.933 51.9112C118.217 51.9112 124.385 46.3909 124.385 36.2077C124.385 27.7395 119.6 21.7904 111.89 21.7904H111.89ZM108.328 45.3725C105.457 45.3725 102.533 43.4431 102.533 37.7083V36.4756C102.533 30.4729 105.085 28.3291 108.594 28.3291C111.943 28.3291 114.602 31.3305 114.602 36.69C114.602 42.532 112.05 45.3725 108.328 45.3725ZM156.814 22.5407H147.244V38.7267C147.244 42.532 145.436 45.3726 142.405 45.3726C139.375 45.3726 138.099 43.7647 137.78 41.0313C137.62 39.5842 137.567 38.0299 137.567 37.1188V22.5407H127.997V39.2626C127.997 41.5673 128.05 43.2287 128.263 44.6758C128.901 48.5883 132.463 51.9113 138.312 51.9113C140.917 51.9113 142.937 51.3217 144.692 50.2498L147.244 46.3373V51.1609H156.814V22.5407H156.814ZM191.089 29.5618C190.344 24.5774 186.888 21.7904 181.04 21.7904C178.435 21.7904 176.414 22.38 174.66 23.4519L172.108 26.9892V22.5407H162.537V51.1609H172.108V37.6548C172.108 31.1697 174.181 28.3291 177.106 28.3291C179.977 28.3291 181.465 29.937 181.678 32.6704C181.784 34.1174 181.784 35.6717 181.784 36.5829V51.1609H191.355V34.975C191.355 32.6704 191.301 31.0089 191.089 29.5618V29.5618ZM210.099 21.7904C201.752 21.7904 195.159 27.3108 195.159 37.1724C195.159 46.6053 201.327 51.9112 209.461 51.9112C217.171 51.9112 222.86 48.0523 223.923 40.6561H214.512C213.981 43.7647 212.173 45.3726 209.993 45.3726C206.75 45.3726 204.942 42.6928 204.942 36.5828C204.942 31.0625 206.697 28.3291 209.887 28.3291C212.279 28.3291 214.14 29.7226 214.565 33.4743H223.817C223.551 27.0428 218.447 21.7904 210.099 21.7904ZM256.51 29.5618C255.766 24.5774 252.31 21.7904 246.462 21.7904C243.857 21.7904 241.836 22.38 240.082 23.4519L237.53 26.9892V11.5H227.959V51.1609H237.53V37.6547C237.53 31.1697 239.603 28.3291 242.527 28.3291C245.398 28.3291 246.887 29.937 247.1 32.6703C247.206 34.1174 247.206 35.6717 247.206 36.5828V51.1609H256.776V34.975C256.776 32.6703 256.723 31.0089 256.51 29.5618L256.51 29.5618Z" fill="#1F84C0"/>
<path d="M273.128 51.1627V14.1816H263.558V51.1627H273.128ZM307.445 29.5636C306.701 24.5792 303.245 21.7922 297.396 21.7922C294.791 21.7922 292.771 22.3818 291.016 23.4537L288.464 26.991V22.5426H278.894V51.1627H288.464V37.6566C288.464 31.1715 290.538 28.3309 293.462 28.3309C296.333 28.3309 297.822 29.9388 298.034 32.6722C298.141 34.1193 298.141 35.6736 298.141 36.5847V51.1627H307.711V34.9768C307.711 32.6722 307.658 31.0107 307.445 29.5636V29.5636ZM317.683 41.1939C314.546 41.1939 312.366 43.3913 312.366 46.5535C312.366 49.7156 314.546 51.9131 317.683 51.9131C320.82 51.9131 323 49.7156 323 46.5535C323 43.3913 320.82 41.1939 317.683 41.1939Z" fill="#19A0CC"/>
<path d="M98.1971 84.7846C97.961 84.7846 97.7776 84.7189 97.6477 84.5881C97.5294 84.4451 97.4705 84.2486 97.4705 83.9985V78.1387L97.7895 79.157L93.3411 72.9756C93.2348 72.8207 93.1816 72.6661 93.1816 72.5112C93.1936 72.3446 93.2583 72.2074 93.3766 72.1003C93.4949 71.9931 93.6482 71.9395 93.8374 71.9395C94.0026 71.9395 94.1506 71.981 94.2804 72.0645C94.4103 72.136 94.5286 72.2552 94.6349 72.4218L98.4098 77.6742H98.0376L101.813 72.4218C101.942 72.2432 102.066 72.1181 102.185 72.0467C102.303 71.9752 102.445 71.9395 102.61 71.9395C102.799 71.9395 102.947 71.9931 103.053 72.1003C103.159 72.1954 103.213 72.3267 103.213 72.4933C103.225 72.6483 103.171 72.8149 103.053 72.9935L98.6225 79.157L98.9238 78.1387V83.9985C98.9238 84.5224 98.6814 84.7846 98.1971 84.7846ZM106.998 84.8203C106.159 84.8203 105.433 84.6359 104.818 84.2665C104.204 83.8971 103.725 83.379 103.383 82.7122C103.052 82.0333 102.887 81.2352 102.887 80.3183C102.887 79.6273 102.981 79.0083 103.17 78.4603C103.359 77.9007 103.637 77.4241 104.003 77.0311C104.369 76.638 104.801 76.3401 105.297 76.1378C105.805 75.9234 106.372 75.8162 106.998 75.8162C107.837 75.8162 108.564 76.0007 109.178 76.3701C109.793 76.7394 110.265 77.2633 110.596 77.9422C110.938 78.609 111.11 79.4013 111.11 80.3183C111.11 81.0092 111.015 81.6282 110.826 82.1763C110.637 82.7243 110.36 83.2004 109.993 83.6055C109.627 83.9985 109.19 84.3022 108.682 84.5166C108.186 84.7189 107.624 84.8203 106.998 84.8203ZM106.998 83.6591C107.53 83.6591 107.996 83.5282 108.398 83.266C108.8 83.0039 109.107 82.6229 109.32 82.1227C109.545 81.6224 109.657 81.0208 109.657 80.3183C109.657 79.2343 109.414 78.4067 108.93 77.835C108.457 77.2633 107.813 76.9775 106.998 76.9775C106.455 76.9775 105.982 77.1083 105.58 77.3705C105.191 77.6206 104.883 77.9958 104.659 78.496C104.446 78.9842 104.34 79.5916 104.34 80.3183C104.34 81.3902 104.582 82.2178 105.066 82.8015C105.551 83.3732 106.195 83.6591 106.998 83.6591ZM116.315 84.8203C115.617 84.8203 115.039 84.6953 114.578 84.4451C114.128 84.183 113.786 83.7962 113.55 83.2839C113.325 82.7716 113.213 82.1347 113.213 81.3723V76.5844C113.213 76.3343 113.272 76.1498 113.39 76.0306C113.52 75.9113 113.697 75.8519 113.922 75.8519C114.158 75.8519 114.335 75.9113 114.454 76.0306C114.583 76.1498 114.649 76.3343 114.649 76.5844V81.3544C114.649 82.1168 114.802 82.6885 115.109 83.0695C115.428 83.4389 115.925 83.6233 116.598 83.6233C117.33 83.6233 117.927 83.3732 118.388 82.873C118.849 82.3727 119.079 81.7175 119.079 80.9078V76.5844C119.079 76.3343 119.138 76.1498 119.256 76.0306C119.386 75.9113 119.569 75.8519 119.806 75.8519C120.03 75.8519 120.202 75.9113 120.32 76.0306C120.45 76.1498 120.515 76.3343 120.515 76.5844V84.0342C120.515 84.5345 120.284 84.7846 119.824 84.7846C119.599 84.7846 119.422 84.7189 119.292 84.5881C119.174 84.4572 119.115 84.2723 119.115 84.0342V82.4085L119.345 82.6586C119.109 83.3612 118.719 83.8971 118.175 84.2665C117.644 84.6359 117.023 84.8203 116.315 84.8203ZM123.927 84.7846C123.691 84.7846 123.508 84.7189 123.378 84.5881C123.26 84.4572 123.201 84.2723 123.201 84.0342V76.5844C123.201 76.3464 123.26 76.1677 123.378 76.0485C123.496 75.9176 123.667 75.8519 123.892 75.8519C124.116 75.8519 124.288 75.9176 124.406 76.0485C124.536 76.1677 124.601 76.3464 124.601 76.5844V78.0315H124.424C124.612 77.329 124.973 76.7868 125.505 76.4058C126.036 76.0248 126.692 75.822 127.472 75.7984C127.649 75.7863 127.791 75.8283 127.897 75.9234C128.004 76.0069 128.062 76.1557 128.074 76.37C128.086 76.5724 128.039 76.7332 127.933 76.8524C127.826 76.9716 127.661 77.0431 127.436 77.0668L127.153 77.1025C126.349 77.174 125.729 77.4361 125.292 77.8886C124.867 78.3294 124.654 78.9368 124.654 79.7108V84.0342C124.654 84.2723 124.589 84.4572 124.459 84.5881C124.341 84.7189 124.163 84.7846 123.927 84.7846ZM134.83 84.7488C134.594 84.7488 134.417 84.6832 134.299 84.5523C134.18 84.4094 134.121 84.2129 134.121 83.9628V76.6559C134.121 76.4058 134.18 76.2151 134.299 76.0842C134.417 75.9533 134.594 75.8877 134.83 75.8877C135.055 75.8877 135.232 75.9533 135.362 76.0842C135.492 76.2151 135.557 76.4058 135.557 76.6559V83.9628C135.557 84.2129 135.492 84.4094 135.362 84.5523C135.244 84.6832 135.066 84.7488 134.83 84.7488ZM134.83 73.8868C134.535 73.8868 134.304 73.8095 134.139 73.6545C133.974 73.4879 133.891 73.2673 133.891 72.9935C133.891 72.7077 133.974 72.4933 134.139 72.3503C134.304 72.1954 134.535 72.1181 134.83 72.1181C135.137 72.1181 135.368 72.1954 135.521 72.3503C135.687 72.4933 135.77 72.7077 135.77 72.9935C135.77 73.2673 135.687 73.4879 135.521 73.6545C135.368 73.8095 135.137 73.8868 134.83 73.8868ZM138.949 84.7846C138.713 84.7846 138.536 84.7189 138.418 84.5881C138.299 84.4572 138.241 84.2723 138.241 84.0342V76.5844C138.241 76.3464 138.299 76.1677 138.418 76.0485C138.536 75.9176 138.707 75.8519 138.932 75.8519C139.156 75.8519 139.327 75.9176 139.446 76.0485C139.576 76.1677 139.641 76.3464 139.641 76.5844V78.1208L139.446 77.9065C139.694 77.2155 140.095 76.6974 140.651 76.3522C141.218 75.9949 141.868 75.8162 142.6 75.8162C143.285 75.8162 143.852 75.9413 144.302 76.1914C144.762 76.4415 145.105 76.8225 145.33 77.3348C145.554 77.835 145.666 78.4723 145.666 79.2463V84.0342C145.666 84.2723 145.601 84.4572 145.471 84.5881C145.353 84.7189 145.182 84.7846 144.957 84.7846C144.721 84.7846 144.538 84.7189 144.408 84.5881C144.29 84.4572 144.231 84.2723 144.231 84.0342V79.3357C144.231 78.5259 144.071 77.9364 143.752 77.567C143.445 77.186 142.949 76.9953 142.264 76.9953C141.472 76.9953 140.84 77.2454 140.367 77.7457C139.906 78.2338 139.676 78.889 139.676 79.7108V84.0342C139.676 84.5345 139.434 84.7846 138.949 84.7846ZM151.22 84.8203C150.688 84.8203 150.151 84.7547 149.607 84.6238C149.075 84.4929 148.579 84.2665 148.118 83.9449C148 83.8614 147.918 83.7663 147.87 83.6591C147.823 83.5398 147.805 83.4268 147.817 83.3196C147.841 83.2004 147.888 83.0994 147.959 83.0159C148.042 82.9324 148.136 82.8851 148.242 82.873C148.361 82.8493 148.49 82.873 148.632 82.9445C149.093 83.2303 149.536 83.4326 149.961 83.5519C150.399 83.6591 150.83 83.7127 151.255 83.7127C151.929 83.7127 152.437 83.5876 152.779 83.3375C153.122 83.0874 153.293 82.7479 153.293 82.3192C153.293 81.9855 153.181 81.7238 152.957 81.5331C152.732 81.3308 152.378 81.1758 151.893 81.0686L150.28 80.7113C149.536 80.5563 148.981 80.2883 148.615 79.9073C148.26 79.5264 148.083 79.032 148.083 78.4245C148.083 77.8886 148.219 77.4299 148.49 77.0489C148.774 76.6559 149.17 76.3521 149.678 76.1378C150.186 75.9234 150.777 75.8162 151.45 75.8162C151.97 75.8162 152.46 75.8877 152.921 76.0306C153.394 76.1615 153.819 76.3758 154.197 76.6737C154.315 76.7573 154.392 76.8582 154.428 76.9775C154.475 77.0846 154.481 77.1976 154.445 77.3169C154.422 77.4241 154.369 77.5192 154.286 77.6027C154.203 77.6742 154.103 77.7157 153.984 77.7278C153.867 77.7399 153.743 77.7041 153.612 77.6206C153.258 77.3826 152.898 77.2097 152.531 77.1025C152.165 76.9833 151.805 76.9239 151.45 76.9239C150.789 76.9239 150.287 77.0547 149.944 77.3169C149.601 77.5791 149.43 77.9243 149.43 78.3531C149.43 78.6867 149.536 78.9605 149.749 79.1749C149.961 79.3893 150.292 79.5442 150.741 79.6394L152.354 79.9788C153.122 80.1454 153.695 80.4134 154.073 80.7828C154.463 81.1401 154.658 81.6282 154.658 82.2477C154.658 83.0338 154.345 83.6591 153.719 84.1236C153.093 84.5881 152.26 84.8203 151.22 84.8203ZM159.894 84.8203C159.197 84.8203 158.618 84.6953 158.157 84.4451C157.708 84.183 157.366 83.7962 157.129 83.2839C156.905 82.7716 156.793 82.1347 156.793 81.3723V76.5844C156.793 76.3343 156.852 76.1498 156.97 76.0306C157.1 75.9113 157.277 75.8519 157.502 75.8519C157.738 75.8519 157.915 75.9113 158.033 76.0306C158.163 76.1498 158.228 76.3343 158.228 76.5844V81.3544C158.228 82.1168 158.382 82.6885 158.689 83.0695C159.008 83.4389 159.504 83.6233 160.178 83.6233C160.91 83.6233 161.507 83.3732 161.968 82.873C162.428 82.3727 162.659 81.7175 162.659 80.9078V76.5844C162.659 76.3343 162.718 76.1498 162.836 76.0306C162.966 75.9113 163.149 75.8519 163.385 75.8519C163.61 75.8519 163.781 75.9113 163.899 76.0306C164.029 76.1498 164.094 76.3343 164.094 76.5844V84.0342C164.094 84.5345 163.864 84.7846 163.403 84.7846C163.179 84.7846 163.001 84.7189 162.871 84.5881C162.753 84.4572 162.694 84.2723 162.694 84.0342V82.4085L162.925 82.6586C162.688 83.3612 162.299 83.8971 161.755 84.2665C161.223 84.6359 160.603 84.8203 159.894 84.8203ZM167.507 84.7846C167.271 84.7846 167.087 84.7189 166.957 84.5881C166.839 84.4572 166.78 84.2723 166.78 84.0342V76.5844C166.78 76.3464 166.839 76.1677 166.957 76.0485C167.076 75.9176 167.247 75.8519 167.471 75.8519C167.696 75.8519 167.867 75.9176 167.985 76.0485C168.115 76.1677 168.18 76.3464 168.18 76.5844V78.0315H168.003C168.192 77.329 168.552 76.7868 169.084 76.4058C169.616 76.0248 170.272 75.822 171.051 75.7984C171.229 75.7863 171.37 75.8283 171.477 75.9234C171.583 76.0069 171.642 76.1557 171.654 76.37C171.666 76.5724 171.618 76.7332 171.512 76.8524C171.406 76.9716 171.241 77.0431 171.016 77.0668L170.732 77.1025C169.929 77.174 169.309 77.4361 168.871 77.8886C168.446 78.3294 168.233 78.9368 168.233 79.7108V84.0342C168.233 84.2723 168.168 84.4572 168.039 84.5881C167.92 84.7189 167.743 84.7846 167.507 84.7846ZM175.757 84.8203C175.166 84.8203 174.634 84.7073 174.162 84.4809C173.701 84.2428 173.335 83.9212 173.063 83.5161C172.791 83.111 172.656 82.6586 172.656 82.1584C172.656 81.5152 172.815 81.0092 173.134 80.6398C173.465 80.2705 174.003 80.0087 174.747 79.8538C175.503 79.6988 176.531 79.6215 177.831 79.6215H178.628V80.5684H177.848C176.891 80.5684 176.135 80.6161 175.58 80.7113C175.036 80.7948 174.652 80.9435 174.428 81.1579C174.215 81.3723 174.109 81.676 174.109 82.069C174.109 82.5572 174.274 82.9565 174.605 83.266C174.948 83.5755 175.408 83.7305 175.988 83.7305C176.46 83.7305 176.874 83.6175 177.228 83.3911C177.594 83.1646 177.878 82.8551 178.079 82.4621C178.291 82.069 178.398 81.6166 178.398 81.1043V79.0677C178.398 78.3294 178.25 77.7992 177.955 77.4777C177.659 77.144 177.175 76.9774 176.502 76.9774C176.088 76.9774 175.674 77.031 175.261 77.1382C174.847 77.2454 174.41 77.4183 173.949 77.6563C173.784 77.7398 173.642 77.7693 173.524 77.7456C173.406 77.7099 173.311 77.6442 173.241 77.5491C173.17 77.454 173.128 77.3468 173.116 77.2276C173.105 77.0967 173.128 76.9716 173.187 76.8524C173.258 76.7331 173.365 76.638 173.506 76.5665C174.026 76.3044 174.54 76.1141 175.048 75.9949C175.556 75.8756 176.041 75.8162 176.502 75.8162C177.246 75.8162 177.86 75.9412 178.345 76.1914C178.829 76.4294 179.189 76.7988 179.426 77.299C179.662 77.7872 179.78 78.4187 179.78 79.1927V84.0342C179.78 84.2723 179.721 84.4572 179.603 84.588C179.497 84.7189 179.337 84.7846 179.124 84.7846C178.9 84.7846 178.728 84.7189 178.61 84.588C178.492 84.4572 178.433 84.2723 178.433 84.0342V82.6407H178.593C178.498 83.0932 178.315 83.4804 178.043 83.802C177.783 84.1235 177.459 84.3737 177.069 84.5523C176.679 84.731 176.241 84.8203 175.757 84.8203ZM183.152 84.7846C182.916 84.7846 182.739 84.7189 182.62 84.5881C182.502 84.4572 182.443 84.2723 182.443 84.0342V76.5844C182.443 76.3464 182.502 76.1677 182.62 76.0485C182.739 75.9176 182.91 75.8519 183.134 75.8519C183.359 75.8519 183.53 75.9176 183.648 76.0485C183.778 76.1677 183.843 76.3464 183.843 76.5844V78.1208L183.648 77.9065C183.896 77.2155 184.298 76.6974 184.853 76.3522C185.42 75.9949 186.07 75.8162 186.803 75.8162C187.488 75.8162 188.055 75.9413 188.504 76.1914C188.965 76.4415 189.308 76.8225 189.532 77.3348C189.757 77.835 189.869 78.4723 189.869 79.2463V84.0342C189.869 84.2723 189.804 84.4572 189.674 84.5881C189.556 84.7189 189.385 84.7846 189.16 84.7846C188.924 84.7846 188.741 84.7189 188.611 84.5881C188.493 84.4572 188.433 84.2723 188.433 84.0342V79.3357C188.433 78.5259 188.274 77.9364 187.955 77.567C187.648 77.186 187.151 76.9953 186.466 76.9953C185.675 76.9953 185.043 77.2454 184.57 77.7457C184.109 78.2338 183.879 78.889 183.879 79.7108V84.0342C183.879 84.5345 183.637 84.7846 183.152 84.7846ZM196.167 84.8203C195.304 84.8203 194.56 84.6296 193.934 84.2486C193.307 83.8676 192.823 83.3375 192.481 82.6586C192.15 81.9677 191.984 81.17 191.984 80.2647C191.984 79.5737 192.079 78.9547 192.268 78.4067C192.457 77.8587 192.735 77.3942 193.101 77.0132C193.467 76.6202 193.904 76.3222 194.412 76.1199C194.932 75.9176 195.517 75.8162 196.167 75.8162C196.592 75.8162 197.035 75.8819 197.496 76.0127C197.957 76.1436 198.376 76.3701 198.755 76.6916C198.872 76.7751 198.949 76.8761 198.985 76.9953C199.02 77.1146 199.02 77.2334 198.985 77.3526C198.949 77.4598 198.89 77.555 198.808 77.6385C198.725 77.7099 198.618 77.7515 198.489 77.7635C198.37 77.7756 198.246 77.7336 198.116 77.6385C197.809 77.4004 197.496 77.2334 197.177 77.1382C196.858 77.0431 196.551 76.9953 196.256 76.9953C195.795 76.9953 195.393 77.0726 195.05 77.2276C194.708 77.3705 194.418 77.5791 194.182 77.8529C193.945 78.1267 193.762 78.4661 193.633 78.8712C193.514 79.2763 193.455 79.7466 193.455 80.2825C193.455 81.3187 193.697 82.1405 194.182 82.748C194.666 83.3433 195.358 83.6412 196.256 83.6412C196.551 83.6412 196.852 83.5934 197.159 83.4983C197.478 83.4032 197.797 83.2361 198.116 82.9981C198.246 82.9029 198.37 82.8609 198.489 82.873C198.607 82.8851 198.707 82.9324 198.79 83.0159C198.872 83.0874 198.926 83.1825 198.949 83.3018C198.985 83.421 198.985 83.5398 198.949 83.6591C198.914 83.7663 198.837 83.8614 198.719 83.9449C198.341 84.2544 197.927 84.4809 197.478 84.6238C197.029 84.7547 196.592 84.8203 196.167 84.8203ZM204.428 84.8203C203.518 84.8203 202.732 84.6417 202.071 84.2844C201.421 83.915 200.913 83.3969 200.547 82.7301C200.192 82.0632 200.015 81.2651 200.015 80.3361C200.015 79.4308 200.192 78.6447 200.547 77.9779C200.901 77.299 201.385 76.7689 202 76.3879C202.626 76.0069 203.347 75.8162 204.162 75.8162C204.741 75.8162 205.261 75.9176 205.722 76.1199C206.183 76.3106 206.572 76.5902 206.891 76.9596C207.222 77.3289 207.47 77.7756 207.636 78.2995C207.813 78.8234 207.902 79.4129 207.902 80.0681C207.902 80.2589 207.848 80.4018 207.742 80.4969C207.636 80.5804 207.482 80.622 207.281 80.622H201.114V79.6751H206.945L206.661 79.9074C206.661 79.2642 206.566 78.7224 206.377 78.2816C206.188 77.8292 205.91 77.4835 205.545 77.2454C205.19 77.0074 204.741 76.8881 204.198 76.8881C203.595 76.8881 203.081 77.031 202.656 77.3169C202.242 77.5907 201.929 77.9779 201.716 78.4781C201.504 78.9663 201.397 79.538 201.397 80.1932V80.3004C201.397 81.396 201.657 82.2298 202.177 82.8015C202.709 83.3732 203.459 83.659 204.428 83.659C204.829 83.659 205.226 83.6055 205.615 83.4983C206.017 83.3911 206.407 83.2124 206.785 82.9623C206.95 82.8551 207.098 82.8073 207.228 82.8194C207.37 82.8194 207.482 82.8609 207.565 82.9444C207.647 83.0159 207.7 83.111 207.724 83.2303C207.76 83.3375 207.748 83.4567 207.689 83.5876C207.642 83.7185 207.541 83.8319 207.388 83.927C206.998 84.2129 206.537 84.4331 206.005 84.5881C205.474 84.743 204.948 84.8203 204.428 84.8203ZM218.199 84.8203C217.337 84.8203 216.592 84.6296 215.966 84.2486C215.34 83.8676 214.856 83.3375 214.513 82.6586C214.182 81.9677 214.016 81.17 214.016 80.2647C214.016 79.5737 214.111 78.9547 214.3 78.4067C214.489 77.8587 214.767 77.3942 215.133 77.0132C215.499 76.6202 215.937 76.3222 216.444 76.1199C216.964 75.9176 217.549 75.8162 218.199 75.8162C218.624 75.8162 219.067 75.8819 219.528 76.0127C219.989 76.1436 220.408 76.3701 220.786 76.6916C220.905 76.7751 220.981 76.8761 221.017 76.9953C221.052 77.1146 221.052 77.2334 221.017 77.3526C220.981 77.4598 220.922 77.555 220.84 77.6385C220.757 77.7099 220.651 77.7515 220.521 77.7635C220.403 77.7756 220.279 77.7336 220.148 77.6385C219.841 77.4004 219.528 77.2334 219.209 77.1382C218.89 77.0431 218.583 76.9953 218.288 76.9953C217.827 76.9953 217.425 77.0726 217.082 77.2276C216.74 77.3705 216.451 77.5791 216.214 77.8529C215.978 78.1267 215.795 78.4661 215.665 78.8712C215.547 79.2763 215.487 79.7466 215.487 80.2825C215.487 81.3187 215.73 82.1405 216.214 82.748C216.699 83.3433 217.39 83.6412 218.288 83.6412C218.583 83.6412 218.884 83.5934 219.191 83.4983C219.51 83.4032 219.829 83.2361 220.148 82.9981C220.279 82.9029 220.403 82.8609 220.521 82.873C220.639 82.8851 220.739 82.9324 220.822 83.0159C220.905 83.0874 220.958 83.1825 220.981 83.3018C221.017 83.421 221.017 83.5398 220.981 83.6591C220.946 83.7663 220.869 83.8614 220.751 83.9449C220.373 84.2544 219.96 84.4809 219.51 84.6238C219.062 84.7547 218.624 84.8203 218.199 84.8203ZM225.375 84.8203C224.524 84.8203 223.874 84.5581 223.425 84.0342C222.976 83.5103 222.752 82.76 222.752 81.7832V72.6719C222.752 72.4339 222.811 72.2552 222.929 72.136C223.047 72.0051 223.225 71.9395 223.461 71.9395C223.685 71.9395 223.863 72.0051 223.992 72.136C224.122 72.2552 224.187 72.4339 224.187 72.6719V81.676C224.187 82.3192 224.311 82.8015 224.56 83.1231C224.82 83.4326 225.198 83.5876 225.694 83.5876C225.8 83.5876 225.895 83.5818 225.977 83.5697C226.06 83.5577 226.143 83.5519 226.225 83.5519C226.355 83.5398 226.444 83.5697 226.491 83.6412C226.55 83.7127 226.58 83.8556 226.58 84.07C226.58 84.2843 226.533 84.4451 226.438 84.5523C226.344 84.6595 226.19 84.731 225.977 84.7667C225.883 84.7788 225.782 84.7904 225.676 84.8024C225.57 84.8145 225.469 84.8203 225.375 84.8203ZM230.708 84.8203C230.117 84.8203 229.585 84.7073 229.112 84.4809C228.652 84.2428 228.285 83.9212 228.014 83.5161C227.742 83.111 227.606 82.6586 227.606 82.1584C227.606 81.5152 227.766 81.0092 228.085 80.6398C228.416 80.2705 228.953 80.0087 229.697 79.8538C230.454 79.6988 231.482 79.6215 232.781 79.6215H233.579V80.5684H232.799C231.842 80.5684 231.085 80.6161 230.53 80.7113C229.987 80.7948 229.603 80.9435 229.378 81.1579C229.166 81.3723 229.059 81.676 229.059 82.069C229.059 82.5572 229.225 82.9565 229.556 83.266C229.898 83.5755 230.359 83.7305 230.938 83.7305C231.411 83.7305 231.824 83.6175 232.178 83.3911C232.545 83.1646 232.828 82.8551 233.029 82.4621C233.242 82.069 233.348 81.6166 233.348 81.1043V79.0677C233.348 78.3294 233.201 77.7992 232.905 77.4777C232.61 77.144 232.125 76.9774 231.452 76.9774C231.038 76.9774 230.625 77.031 230.211 77.1382C229.798 77.2454 229.361 77.4183 228.9 77.6563C228.735 77.7398 228.593 77.7693 228.474 77.7456C228.356 77.7099 228.262 77.6442 228.191 77.5491C228.12 77.454 228.079 77.3468 228.067 77.2276C228.055 77.0967 228.079 76.9716 228.138 76.8524C228.209 76.7331 228.315 76.638 228.457 76.5665C228.976 76.3044 229.49 76.1141 229.999 75.9949C230.507 75.8756 230.991 75.8162 231.452 75.8162C232.196 75.8162 232.811 75.9412 233.295 76.1914C233.779 76.4294 234.14 76.7988 234.376 77.299C234.612 77.7872 234.731 78.4187 234.731 79.1927V84.0342C234.731 84.2723 234.672 84.4572 234.553 84.588C234.447 84.7189 234.287 84.7846 234.075 84.7846C233.85 84.7846 233.679 84.7189 233.561 84.588C233.443 84.4572 233.384 84.2723 233.384 84.0342V82.6407H233.543C233.449 83.0932 233.265 83.4804 232.994 83.802C232.734 84.1235 232.409 84.3737 232.019 84.5523C231.629 84.731 231.192 84.8203 230.708 84.8203ZM238.103 84.7488C237.867 84.7488 237.689 84.6832 237.571 84.5523C237.453 84.4094 237.394 84.2129 237.394 83.9628V76.6559C237.394 76.4058 237.453 76.2151 237.571 76.0842C237.689 75.9533 237.867 75.8877 238.103 75.8877C238.327 75.8877 238.505 75.9533 238.634 76.0842C238.764 76.2151 238.829 76.4058 238.829 76.6559V83.9628C238.829 84.2129 238.764 84.4094 238.634 84.5523C238.516 84.6832 238.339 84.7488 238.103 84.7488ZM238.103 73.8868C237.807 73.8868 237.577 73.8095 237.412 73.6545C237.246 73.4879 237.163 73.2673 237.163 72.9935C237.163 72.7077 237.246 72.4933 237.412 72.3503C237.577 72.1954 237.807 72.1181 238.103 72.1181C238.41 72.1181 238.64 72.1954 238.794 72.3503C238.959 72.4933 239.042 72.7077 239.042 72.9935C239.042 73.2673 238.959 73.4879 238.794 73.6545C238.64 73.8095 238.41 73.8868 238.103 73.8868ZM242.257 84.7846C242.021 84.7846 241.844 84.7189 241.726 84.5881C241.607 84.4572 241.548 84.2723 241.548 84.0342V76.5844C241.548 76.3464 241.607 76.1677 241.726 76.0485C241.844 75.9176 242.015 75.8519 242.24 75.8519C242.464 75.8519 242.635 75.9176 242.754 76.0485C242.883 76.1677 242.949 76.3464 242.949 76.5844V78.1566L242.754 77.9065C242.978 77.2396 243.338 76.7273 243.835 76.37C244.342 76.0007 244.945 75.8162 245.642 75.8162C246.375 75.8162 246.965 75.9949 247.415 76.3522C247.875 76.6974 248.183 77.2396 248.336 77.9779H248.07C248.283 77.3111 248.661 76.7868 249.205 76.4058C249.76 76.0127 250.404 75.8162 251.136 75.8162C251.786 75.8162 252.318 75.9413 252.731 76.1914C253.157 76.4415 253.476 76.8225 253.688 77.3348C253.901 77.835 254.007 78.4723 254.007 79.2463V84.0342C254.007 84.2723 253.942 84.4572 253.813 84.5881C253.694 84.7189 253.517 84.7846 253.281 84.7846C253.056 84.7846 252.879 84.7189 252.749 84.5881C252.631 84.4572 252.572 84.2723 252.572 84.0342V79.3178C252.572 78.5197 252.436 77.9364 252.164 77.567C251.892 77.186 251.431 76.9953 250.782 76.9953C250.073 76.9953 249.512 77.2454 249.098 77.7457C248.696 78.2338 248.496 78.9011 248.496 79.7466V84.0342C248.496 84.2723 248.431 84.4572 248.301 84.5881C248.182 84.7189 248.005 84.7846 247.769 84.7846C247.544 84.7846 247.367 84.7189 247.237 84.5881C247.119 84.4572 247.06 84.2723 247.06 84.0342V79.3178C247.06 78.5197 246.918 77.9364 246.635 77.567C246.363 77.186 245.908 76.9953 245.27 76.9953C244.561 76.9953 244 77.2454 243.587 77.7457C243.185 78.2338 242.984 78.9011 242.984 79.7466V84.0342C242.984 84.5345 242.742 84.7846 242.257 84.7846ZM261.969 88.0003C261.733 88.0003 261.556 87.9347 261.438 87.8038C261.319 87.6846 261.26 87.5059 261.26 87.2679V76.5844C261.26 76.3464 261.319 76.1677 261.438 76.0485C261.556 75.9176 261.727 75.8519 261.952 75.8519C262.188 75.8519 262.365 75.9176 262.483 76.0485C262.613 76.1677 262.678 76.3464 262.678 76.5844V78.2816L262.483 78.0315C262.673 77.3526 263.045 76.8167 263.6 76.4236C264.167 76.0185 264.84 75.8162 265.62 75.8162C266.388 75.8162 267.056 76.0007 267.623 76.37C268.202 76.7274 268.645 77.2454 268.952 77.9243C269.271 78.5911 269.431 79.3893 269.431 80.3183C269.431 81.2352 269.271 82.0333 268.952 82.7122C268.645 83.379 268.208 83.8971 267.641 84.2665C267.073 84.6358 266.4 84.8203 265.62 84.8203C264.84 84.8203 264.173 84.6238 263.618 84.2307C263.062 83.8257 262.684 83.2897 262.483 82.6229H262.696V87.2678C262.696 87.5059 262.631 87.6846 262.501 87.8038C262.371 87.9347 262.194 88.0003 261.969 88.0003ZM265.319 83.6591C265.863 83.6591 266.329 83.5282 266.719 83.266C267.121 83.0039 267.428 82.6229 267.641 82.1227C267.865 81.6224 267.977 81.0208 267.977 80.3183C267.977 79.2343 267.735 78.4067 267.251 77.835C266.778 77.2633 266.134 76.9775 265.319 76.9775C264.787 76.9775 264.321 77.1083 263.919 77.3705C263.517 77.6206 263.204 77.9958 262.98 78.496C262.767 78.9842 262.661 79.5916 262.661 80.3183C262.661 81.3902 262.903 82.2178 263.387 82.8015C263.871 83.3732 264.516 83.6591 265.319 83.6591ZM274.304 84.8203C273.714 84.8203 273.182 84.7073 272.709 84.4809C272.249 84.2428 271.883 83.9212 271.611 83.5161C271.339 83.111 271.203 82.6586 271.203 82.1584C271.203 81.5152 271.362 81.0092 271.681 80.6398C272.012 80.2705 272.55 80.0087 273.294 79.8538C274.05 79.6988 275.078 79.6215 276.378 79.6215H277.175V80.5684H276.396C275.439 80.5684 274.683 80.6161 274.127 80.7113C273.584 80.7948 273.2 80.9435 272.975 81.1579C272.762 81.3723 272.656 81.676 272.656 82.069C272.656 82.5572 272.822 82.9565 273.152 83.266C273.495 83.5755 273.956 83.7305 274.535 83.7305C275.007 83.7305 275.421 83.6175 275.775 83.3911C276.142 83.1646 276.425 82.8551 276.626 82.4621C276.839 82.069 276.945 81.6166 276.945 81.1043V79.0677C276.945 78.3294 276.797 77.7992 276.502 77.4777C276.207 77.144 275.722 76.9774 275.049 76.9774C274.635 76.9774 274.222 77.031 273.808 77.1382C273.395 77.2454 272.957 77.4183 272.497 77.6563C272.331 77.7398 272.19 77.7693 272.071 77.7456C271.953 77.7099 271.859 77.6442 271.788 77.5491C271.717 77.454 271.676 77.3468 271.664 77.2276C271.652 77.0967 271.676 76.9716 271.735 76.8524C271.805 76.7331 271.912 76.638 272.054 76.5665C272.574 76.3044 273.088 76.1141 273.595 75.9949C274.104 75.8756 274.588 75.8162 275.049 75.8162C275.793 75.8162 276.408 75.9412 276.892 76.1914C277.377 76.4294 277.737 76.7988 277.973 77.299C278.21 77.7872 278.327 78.4187 278.327 79.1927V84.0342C278.327 84.2723 278.268 84.4572 278.15 84.588C278.044 84.7189 277.884 84.7846 277.672 84.7846C277.447 84.7846 277.276 84.7189 277.158 84.588C277.04 84.4572 276.98 84.2723 276.98 84.0342V82.6407H277.14C277.046 83.0932 276.863 83.4804 276.591 83.802C276.331 84.1235 276.006 84.3737 275.616 84.5523C275.226 84.731 274.789 84.8203 274.304 84.8203ZM281.717 84.7846C281.481 84.7846 281.298 84.7189 281.168 84.5881C281.05 84.4572 280.991 84.2723 280.991 84.0342V76.5844C280.991 76.3464 281.05 76.1677 281.168 76.0485C281.286 75.9176 281.458 75.8519 281.682 75.8519C281.906 75.8519 282.078 75.9176 282.196 76.0485C282.326 76.1677 282.391 76.3464 282.391 76.5844V78.0315H282.214C282.403 77.329 282.763 76.7868 283.295 76.4058C283.826 76.0248 284.482 75.822 285.262 75.7984C285.439 75.7863 285.581 75.8283 285.687 75.9234C285.793 76.0069 285.853 76.1557 285.864 76.37C285.876 76.5724 285.829 76.7332 285.723 76.8524C285.616 76.9716 285.451 77.0431 285.226 77.0668L284.943 77.1025C284.139 77.174 283.519 77.4361 283.082 77.8886C282.657 78.3294 282.444 78.9368 282.444 79.7108V84.0342C282.444 84.2723 282.379 84.4572 282.249 84.5881C282.131 84.7189 281.954 84.7846 281.717 84.7846ZM291.266 84.8203C290.592 84.8203 290.025 84.7011 289.564 84.463C289.116 84.2129 288.779 83.8556 288.554 83.3911C288.33 82.9145 288.218 82.337 288.218 81.6582V77.1025H287.03C286.829 77.1025 286.676 77.0547 286.569 76.9596C286.463 76.8524 286.41 76.7095 286.41 76.5308C286.41 76.3522 286.463 76.2151 286.569 76.1199C286.676 76.0248 286.829 75.977 287.03 75.977H288.218V73.9225C288.218 73.6844 288.283 73.5058 288.412 73.3865C288.542 73.2557 288.719 73.19 288.944 73.19C289.169 73.19 289.34 73.2557 289.458 73.3865C289.588 73.5058 289.653 73.6844 289.653 73.9225V75.977H291.886C292.087 75.977 292.241 76.0248 292.347 76.1199C292.453 76.2151 292.506 76.3522 292.506 76.5308C292.506 76.7095 292.453 76.8524 292.347 76.9596C292.241 77.0547 292.087 77.1025 291.886 77.1025H289.653V81.5152C289.653 82.1941 289.795 82.7122 290.078 83.0695C290.362 83.4148 290.823 83.5876 291.461 83.5876C291.685 83.5876 291.874 83.5639 292.028 83.5161C292.193 83.4684 292.329 83.4447 292.435 83.4447C292.542 83.4326 292.63 83.4684 292.701 83.5519C292.772 83.6354 292.808 83.7783 292.808 83.9806C292.808 84.1236 292.778 84.2544 292.719 84.3737C292.672 84.4929 292.583 84.576 292.453 84.6238C292.311 84.6716 292.122 84.7131 291.886 84.7489C291.661 84.7966 291.455 84.8203 291.266 84.8203ZM294.715 84.7846C294.478 84.7846 294.301 84.7189 294.183 84.5881C294.065 84.4572 294.006 84.2723 294.006 84.0342V76.5844C294.006 76.3464 294.065 76.1677 294.183 76.0485C294.301 75.9176 294.473 75.8519 294.697 75.8519C294.922 75.8519 295.093 75.9176 295.211 76.0485C295.341 76.1677 295.406 76.3464 295.406 76.5844V78.1208L295.211 77.9065C295.459 77.2155 295.861 76.6974 296.416 76.3522C296.983 75.9949 297.633 75.8162 298.365 75.8162C299.051 75.8162 299.618 75.9413 300.067 76.1914C300.528 76.4415 300.871 76.8225 301.095 77.3348C301.319 77.835 301.431 78.4723 301.431 79.2463V84.0342C301.431 84.2723 301.367 84.4572 301.237 84.5881C301.119 84.7189 300.947 84.7846 300.723 84.7846C300.486 84.7846 300.303 84.7189 300.173 84.5881C300.055 84.4572 299.996 84.2723 299.996 84.0342V79.3357C299.996 78.5259 299.836 77.9364 299.517 77.567C299.21 77.186 298.714 76.9953 298.029 76.9953C297.237 76.9953 296.605 77.2454 296.132 77.7457C295.672 78.2338 295.441 78.889 295.441 79.7108V84.0342C295.441 84.5345 295.199 84.7846 294.715 84.7846ZM307.96 84.8203C307.05 84.8203 306.264 84.6417 305.603 84.2844C304.953 83.915 304.445 83.3969 304.079 82.7301C303.724 82.0632 303.547 81.2651 303.547 80.3361C303.547 79.4308 303.724 78.6447 304.079 77.9779C304.433 77.299 304.918 76.7689 305.532 76.3879C306.158 76.0069 306.879 75.8162 307.694 75.8162C308.273 75.8162 308.793 75.9176 309.254 76.1199C309.715 76.3106 310.105 76.5902 310.424 76.9596C310.754 77.3289 311.002 77.7756 311.168 78.2995C311.345 78.8234 311.434 79.4129 311.434 80.0681C311.434 80.2589 311.381 80.4018 311.274 80.4969C311.168 80.5804 311.014 80.622 310.813 80.622H304.646V79.6751H310.477L310.193 79.9074C310.193 79.2642 310.098 78.7224 309.91 78.2816C309.72 77.8292 309.443 77.4835 309.077 77.2454C308.722 77.0074 308.273 76.8881 307.73 76.8881C307.127 76.8881 306.613 77.031 306.188 77.3169C305.774 77.5907 305.461 77.9779 305.249 78.4781C305.036 78.9663 304.93 79.538 304.93 80.1932V80.3004C304.93 81.396 305.189 82.2298 305.709 82.8015C306.241 83.3732 306.991 83.659 307.96 83.659C308.361 83.659 308.758 83.6055 309.147 83.4983C309.549 83.3911 309.939 83.2124 310.317 82.9623C310.482 82.8551 310.63 82.8073 310.76 82.8194C310.902 82.8194 311.014 82.8609 311.097 82.9444C311.179 83.0159 311.233 83.111 311.256 83.2303C311.292 83.3375 311.28 83.4567 311.221 83.5876C311.174 83.7185 311.073 83.8319 310.92 83.927C310.53 84.2129 310.069 84.4331 309.537 84.5881C309.006 84.743 308.48 84.8203 307.96 84.8203ZM314.238 84.7846C314.001 84.7846 313.818 84.7189 313.688 84.5881C313.57 84.4572 313.511 84.2723 313.511 84.0342V76.5844C313.511 76.3464 313.57 76.1677 313.688 76.0485C313.806 75.9176 313.978 75.8519 314.202 75.8519C314.427 75.8519 314.598 75.9176 314.716 76.0485C314.846 76.1677 314.911 76.3464 314.911 76.5844V78.0315H314.734C314.923 77.329 315.283 76.7868 315.815 76.4058C316.347 76.0248 317.003 75.822 317.782 75.7984C317.96 75.7863 318.101 75.8283 318.208 75.9234C318.314 76.0069 318.373 76.1557 318.385 76.37C318.396 76.5724 318.35 76.7332 318.243 76.8524C318.137 76.9716 317.971 77.0431 317.747 77.0668L317.463 77.1025C316.66 77.174 316.039 77.4361 315.603 77.8886C315.177 78.3294 314.964 78.9368 314.964 79.7108V84.0342C314.964 84.2723 314.899 84.4572 314.77 84.5881C314.651 84.7189 314.474 84.7846 314.238 84.7846Z" fill="#2B2C2D"/>
<path d="M20.2109 48.2367C20.2833 44.3316 21.4133 41.2999 23.8307 38.8375C28.8554 33.7192 33.9289 28.6496 38.9639 23.5415C39.8777 22.6145 40.8834 21.973 41.9758 23.0135C43.1993 24.1788 42.4538 25.2508 41.4948 26.215C36.4886 31.248 31.4255 36.2259 26.509 41.3467C21.6835 46.3727 23.703 54.3785 30.2639 56.407C33.3935 57.3746 36.4246 56.9004 38.8168 54.5601C44.2569 49.2381 49.6252 43.8389 54.9243 38.3742C57.1007 36.1299 56.9754 32.9871 54.9221 30.8426C52.8622 28.6911 49.5298 28.5288 47.2747 30.7294C42.5123 35.3768 37.8626 40.1417 33.1766 44.8685C32.2841 45.7688 32.0353 46.7921 33.0388 47.7542C33.9821 48.6584 34.9116 48.2908 35.7245 47.4757C38.568 44.6243 41.4136 41.7749 44.2364 38.9027C45.1737 37.9491 46.1918 37.0543 47.3801 38.2957C48.5083 39.4743 47.7715 40.5124 46.7838 41.4869C43.9191 44.3135 41.1329 47.2208 38.2714 50.0507C35.8357 52.4594 32.4612 52.5118 30.2869 50.2502C28.1636 48.0418 28.2425 44.7442 30.5788 42.3603C35.1915 37.6534 39.8119 32.9529 44.5036 28.3264C48.3579 24.5257 53.7925 24.5261 57.4119 28.1968C61.0319 31.868 61.011 37.4037 57.2745 41.2154C52.0974 46.497 46.9521 51.8156 41.6248 56.9405C37.6663 60.7487 32.9041 61.5616 27.8661 59.3784C22.8942 57.2238 20.5388 53.1503 20.211 48.2367L20.2109 48.2367Z" fill="white"/>
</g>
<defs>
<linearGradient id="paint0_linear_815_21483" x1="0.29195" y1="-3.98097" x2="81.6513" y2="86.1451" gradientUnits="userSpaceOnUse">
<stop stop-color="#12B5D6"/>
<stop offset="1" stop-color="#246FB6"/>
</linearGradient>
<clipPath id="clip0_815_21483">
<rect width="323" height="88" fill="white"/>
</clipPath>
</defs>
</svg>
