<svg width="19" height="13" viewBox="0 0 19 13" fill="none" xmlns="http://www.w3.org/2000/svg">
<path d="M9.49992 1.99967C12.6583 1.99967 15.4749 3.77467 16.8499 6.58301C15.4749 9.39134 12.6583 11.1663 9.49992 11.1663C6.34159 11.1663 3.52492 9.39134 2.14992 6.58301C3.52492 3.77467 6.34159 1.99967 9.49992 1.99967ZM9.49992 0.333008C5.33325 0.333008 1.77492 2.92467 0.333252 6.58301C1.77492 10.2413 5.33325 12.833 9.49992 12.833C13.6666 12.833 17.2249 10.2413 18.6666 6.58301C17.2249 2.92467 13.6666 0.333008 9.49992 0.333008ZM9.49992 4.49967C10.6499 4.49967 11.5833 5.43301 11.5833 6.58301C11.5833 7.73301 10.6499 8.66634 9.49992 8.66634C8.34992 8.66634 7.41659 7.73301 7.41659 6.58301C7.41659 5.43301 8.34992 4.49967 9.49992 4.49967ZM9.49992 2.83301C7.43325 2.83301 5.74992 4.51634 5.74992 6.58301C5.74992 8.64967 7.43325 10.333 9.49992 10.333C11.5666 10.333 13.2499 8.64967 13.2499 6.58301C13.2499 4.51634 11.5666 2.83301 9.49992 2.83301Z" fill="#3489C9"/>
</svg>
