<svg width="20" height="20" viewBox="0 0 20 20" fill="none" xmlns="http://www.w3.org/2000/svg">
<g clip-path="url(#clip0_2698_10580)">
<path d="M10 5.41667C13.1584 5.41667 15.975 7.19167 17.35 10C15.975 12.8083 13.1667 14.5833 10 14.5833C6.83337 14.5833 4.02504 12.8083 2.65004 10C4.02504 7.19167 6.84171 5.41667 10 5.41667ZM10 3.75C5.83337 3.75 2.27504 6.34167 0.833374 10C2.27504 13.6583 5.83337 16.25 10 16.25C14.1667 16.25 17.725 13.6583 19.1667 10C17.725 6.34167 14.1667 3.75 10 3.75ZM10 9.58333C11.15 9.58333 12.0834 10.5167 12.0834 11.6667C12.0834 12.8167 11.15 13.75 10 13.75C8.85004 13.75 7.91671 12.8167 7.91671 11.6667C7.91671 10.5167 8.85004 9.58333 10 9.58333ZM10 7.91667C7.93337 7.91667 6.25004 9.6 6.25004 11.6667C6.25004 13.7333 7.93337 15.4167 10 15.4167C12.0667 15.4167 13.75 13.7333 13.75 11.6667C13.75 9.6 12.0667 7.91667 10 7.91667Z" fill="#3489C9"/>
</g>
<defs>
<clipPath id="clip0_2698_10580">
<rect width="20" height="20" fill="white"/>
</clipPath>
</defs>
</svg>
