<svg width="18" height="18" viewBox="0 0 18 18" fill="none" xmlns="http://www.w3.org/2000/svg">
<path d="M8.99984 0.666016C4.39984 0.666016 0.666504 4.39935 0.666504 8.99935C0.666504 13.5993 4.39984 17.3327 8.99984 17.3327C13.5998 17.3327 17.3332 13.5993 17.3332 8.99935C17.3332 4.39935 13.5998 0.666016 8.99984 0.666016ZM5.12484 14.416C6.2165 13.6327 7.54984 13.166 8.99984 13.166C10.4498 13.166 11.7832 13.6327 12.8748 14.416C11.7832 15.1993 10.4498 15.666 8.99984 15.666C7.54984 15.666 6.2165 15.1993 5.12484 14.416ZM14.1165 13.266C12.7082 12.166 10.9332 11.4993 8.99984 11.4993C7.0665 11.4993 5.2915 12.166 3.88317 13.266C2.9165 12.1077 2.33317 10.6243 2.33317 8.99935C2.33317 5.31602 5.3165 2.33268 8.99984 2.33268C12.6832 2.33268 15.6665 5.31602 15.6665 8.99935C15.6665 10.6243 15.0832 12.1077 14.1165 13.266Z" fill="#5C5C5C"/>
<path d="M8.99967 4C7.39134 4 6.08301 5.30833 6.08301 6.91667C6.08301 8.525 7.39134 9.83333 8.99967 9.83333C10.608 9.83333 11.9163 8.525 11.9163 6.91667C11.9163 5.30833 10.608 4 8.99967 4ZM8.99967 8.16667C8.30801 8.16667 7.74967 7.60833 7.74967 6.91667C7.74967 6.225 8.30801 5.66667 8.99967 5.66667C9.69134 5.66667 10.2497 6.225 10.2497 6.91667C10.2497 7.60833 9.69134 8.16667 8.99967 8.16667Z" fill="#5C5C5C"/>
</svg>
