<svg width="20" height="20" viewBox="0 0 20 20" fill="none" xmlns="http://www.w3.org/2000/svg">
<g clip-path="url(#clip0_655_23062)">
<path d="M9.99984 1.66699C5.39984 1.66699 1.6665 5.40033 1.6665 10.0003C1.6665 14.6003 5.39984 18.3337 9.99984 18.3337C14.5998 18.3337 18.3332 14.6003 18.3332 10.0003C18.3332 5.40033 14.5998 1.66699 9.99984 1.66699ZM6.12484 15.417C7.2165 14.6337 8.54984 14.167 9.99984 14.167C11.4498 14.167 12.7832 14.6337 13.8748 15.417C12.7832 16.2003 11.4498 16.667 9.99984 16.667C8.54984 16.667 7.2165 16.2003 6.12484 15.417ZM15.1165 14.267C13.7082 13.167 11.9332 12.5003 9.99984 12.5003C8.0665 12.5003 6.2915 13.167 4.88317 14.267C3.9165 13.1087 3.33317 11.6253 3.33317 10.0003C3.33317 6.31699 6.3165 3.33366 9.99984 3.33366C13.6832 3.33366 16.6665 6.31699 16.6665 10.0003C16.6665 11.6253 16.0832 13.1087 15.1165 14.267Z" fill="#5C5C5C"/>
<path d="M9.99967 5C8.39134 5 7.08301 6.30833 7.08301 7.91667C7.08301 9.525 8.39134 10.8333 9.99967 10.8333C11.608 10.8333 12.9163 9.525 12.9163 7.91667C12.9163 6.30833 11.608 5 9.99967 5ZM9.99967 9.16667C9.30801 9.16667 8.74967 8.60833 8.74967 7.91667C8.74967 7.225 9.30801 6.66667 9.99967 6.66667C10.6913 6.66667 11.2497 7.225 11.2497 7.91667C11.2497 8.60833 10.6913 9.16667 9.99967 9.16667Z" fill="#5C5C5C"/>
</g>
<defs>
<clipPath id="clip0_655_23062">
<rect width="20" height="20" fill="white"/>
</clipPath>
</defs>
</svg>
